<?xml version="1.0" encoding="UTF-8"?>
<svg version="1.1" xmlns="http://www.w3.org/2000/svg" width="1024" height="1024">
<path d="M0 0 C3.70016395 1.23338798 4.54703034 2.63820444 6.9375 5.6875 C10.50513344 10.1571607 14.13976157 14.54450685 17.875 18.875 C18.90245376 20.07021794 19.92979714 21.26553077 20.95703125 22.4609375 C21.46443848 23.05100586 21.9718457 23.64107422 22.49462891 24.24902344 C29.18189505 32.0273356 35.72143567 39.8695954 42.01147461 47.97387695 C45.43163681 52.35058228 49.0590334 56.48196418 52.81640625 60.57421875 C59.56353588 68.06968833 65.72080442 76.1125091 72 84 C76.04588426 83.42616722 78.75881373 82.13165172 82.1875 79.9375 C86.79764706 77 86.79764706 77 89 77 C89 76.34 89 75.68 89 75 C90.15048828 74.45085937 90.15048828 74.45085937 91.32421875 73.890625 C99.12254356 70.08656412 106.71163683 65.98481222 114.25 61.6875 C115.17901123 61.15995117 116.10802246 60.63240234 117.06518555 60.08886719 C117.93570557 59.5890332 118.80622559 59.08919922 119.703125 58.57421875 C120.48333008 58.12651123 121.26353516 57.67880371 122.06738281 57.2175293 C124.12966235 56.01791736 124.12966235 56.01791736 126 54 C127.42430822 53.24668403 128.8708832 52.53510457 130.328125 51.84765625 C136.68592083 48.73142478 142.69029029 45.09150845 148.75 41.4375 C157.58848894 36.14816113 166.47119402 30.96037313 175.5 26 C176.4187793 25.49009521 177.33755859 24.98019043 178.28417969 24.45483398 C179.12883789 23.99536377 179.97349609 23.53589355 180.84375 23.0625 C181.57787109 22.66160156 182.31199219 22.26070312 183.06835938 21.84765625 C185 21 185 21 188 21 C193.94584009 39.13907904 199.38438645 57.39609178 204.625 75.75 C205.35642371 78.30088081 206.0881936 80.85166238 206.8203125 83.40234375 C208.8851337 90.600158 210.9433683 97.79984221 213 105 C213.61943034 107.16732794 214.23889503 109.33464607 214.85839844 111.50195312 C216.2395693 116.33445365 217.62003786 121.16715418 219 126 C227.5365568 125.36944335 236.07282335 124.73513919 244.60874557 124.09605503 C248.57236293 123.79941746 252.53606757 123.50406941 256.5 123.21166992 C260.32572435 122.92941762 264.15118192 122.64377601 267.97647858 122.35578728 C269.43561064 122.24653429 270.89483455 122.13850081 272.35414886 122.03170967 C274.398791 121.88187498 276.443063 121.72769947 278.48730469 121.57250977 C279.65090515 121.48590591 280.81450562 121.39930206 282.0133667 121.31007385 C284.46239779 121.05581415 286.63722149 120.64968688 289 120 C290.49739712 119.87945546 291.99847704 119.80035962 293.5 119.75390625 C294.37833496 119.72224365 295.25666992 119.69058105 296.16162109 119.65795898 C297.09828613 119.62645752 298.03495117 119.59495605 299 119.5625 C309.72286591 119.1474618 320.33838628 118.19104795 331 117 C331.89774403 119.69323208 332.13141974 121.26513933 332.15148926 124.02980042 C332.15983292 124.84720703 332.16817657 125.66461365 332.17677307 126.50679016 C332.18095749 127.39988388 332.18514191 128.2929776 332.18945312 129.21313477 C332.19774643 130.1564566 332.20603973 131.09977844 332.21458435 132.07168579 C332.23198839 134.12112815 332.24715424 136.17059045 332.26036072 138.22006416 C332.28136787 141.45958306 332.30839124 144.69900153 332.33703613 147.9384613 C332.40691173 155.98293074 332.46632248 164.02747155 332.52606201 172.07202148 C332.57693196 178.86985974 332.63173525 185.6676437 332.69187927 192.46540642 C332.71852155 195.66397886 332.7392937 198.86255619 332.7598877 202.06117249 C332.7764851 204.01287072 332.79335644 205.96456666 332.81054688 207.91625977 C332.81473129 208.81137772 332.81891571 209.70649567 332.82322693 210.6287384 C332.73856467 214.95084546 332.73856467 214.95084546 334 219 C335.66265276 219.3528097 337.33065989 219.68032441 339 220 C341.73506279 220.97108615 344.43740283 221.97483204 347.140625 223.02734375 C347.93242661 223.33216171 348.72422821 223.63697968 349.5400238 223.95103455 C352.11160612 224.94245981 354.68082798 225.93984727 357.25 226.9375 C359.01530023 227.61951213 360.78068146 228.30131463 362.54614258 228.98291016 C373.64453944 233.27489 384.71648694 237.62903911 395.73730469 242.11694336 C396.65286133 242.48827393 397.56841797 242.85960449 398.51171875 243.2421875 C399.28990967 243.5604248 400.06810059 243.87866211 400.86987305 244.20654297 C402.89924157 244.96246821 404.90007118 245.48288981 407 246 C408.95164589 246.86458194 410.88756224 247.76498266 412.8125 248.6875 C420.09066244 252.10327396 427.51186723 255.07931751 435 258 C431.9145434 263.70089278 428.32105625 268.81680344 424.4375 274 C423.19399259 275.67576802 421.95050326 277.35154946 420.70703125 279.02734375 C418.89800592 281.45585316 417.08732805 283.88310944 415.27490234 286.30908203 C413.72115733 288.39077617 412.17281387 290.47639458 410.625 292.5625 C410.15505615 293.18705078 409.6851123 293.81160156 409.20092773 294.45507812 C406.77849249 297.41061646 406.77849249 297.41061646 406 301 C404.84850339 302.14287117 403.69357521 303.28243274 402.52441406 304.40722656 C399.45886518 307.61024401 396.96912066 311.28896744 394.375 314.875 C393.76833496 315.70620361 393.16166992 316.53740723 392.53662109 317.39379883 C391.29418847 319.09640976 390.05346254 320.80026744 388.81445312 322.50537109 C386.09684292 326.24171946 383.36009642 329.9639461 380.625 333.6875 C379.0827505 335.7912404 377.54134286 337.89559516 376 340 C377.65013765 344.25556298 380.82944222 347.09579796 384.01025391 350.23730469 C384.6250209 350.85236374 385.2397879 351.46742279 385.8731842 352.10112 C387.90293824 354.12948258 389.93968075 356.15067226 391.9765625 358.171875 C393.38661525 359.57819697 394.79622658 360.98496164 396.20541382 362.39215088 C399.91312042 366.09222618 403.62679424 369.78625567 407.34173584 373.47906494 C411.13248259 377.24934253 414.91756457 381.02529761 418.703125 384.80078125 C426.12987841 392.2060936 433.56294714 399.60503232 441 407 C432.79081245 415.28217719 423.61034674 422.37555553 414.3515625 429.43359375 C410.87343524 432.08763155 407.43525489 434.79083092 404 437.5 C399.59125416 440.96851207 395.1809599 444.43488289 390.75 447.875 C390.24065918 448.27734863 389.73131836 448.67969727 389.20654297 449.09423828 C385.95950242 451.62212899 382.62995453 453.89802819 379.1484375 456.09375 C378.31731445 456.63789551 377.48619141 457.18204102 376.62988281 457.74267578 C374.99367007 458.80892514 373.33426052 459.84060914 371.65136719 460.83154297 C369.26857159 462.41169648 367.70596998 463.70348504 366 466 C365.72637258 468.56163881 365.72637258 468.56163881 366.15234375 471.36352539 C366.27505646 472.43179565 366.39776917 473.50006592 366.52420044 474.60070801 C367.33098109 480.36465404 368.21346379 486.10819782 369.1796875 491.84765625 C369.50604934 493.82315946 369.83241085 495.79866273 370.15875435 497.77416897 C370.61271299 500.51452882 371.07111669 503.25413821 371.52941895 505.99377441 C372.09945798 509.40615571 372.66492386 512.81929337 373.23046875 516.23242188 C373.34088627 516.89849646 373.45130379 517.56457104 373.56506729 518.2508297 C374.5222445 524.0252219 375.47888389 529.79970303 376.43347168 535.57452393 C376.79330864 537.75025433 377.15397099 539.92584851 377.51574707 542.10125732 C377.95549164 544.75293182 378.38909013 547.40552221 378.8203125 550.05859375 C378.94373016 550.7957814 379.06714783 551.53296906 379.19430542 552.29249573 C379.82884769 556.24459371 380.04290271 560.00368981 380 564 C379.40346587 563.99962297 378.80693174 563.99924595 378.19232082 563.9988575 C363.66071669 563.99173273 349.12943058 564.01770658 334.5979681 564.0802784 C327.570523 564.10974452 320.54337972 564.1281092 313.51586914 564.12011719 C306.73345425 564.11243536 299.95171865 564.13598451 293.1694355 564.17855453 C290.58232536 564.18969371 287.99514834 564.19037873 285.40803337 564.18042374 C281.7829278 564.16826285 278.15984099 564.19331557 274.53491211 564.22705078 C273.46604263 564.21482986 272.39717316 564.20260895 271.2959137 564.1900177 C265.19613071 564.29225854 261.76275678 565.04013356 257.44692326 569.48579216 C256.96943858 569.98548075 256.49195391 570.48516933 256 571 C230.57085965 590.28835284 201.06944081 596.04671942 170 592 C170 591.34 170 590.68 170 590 C169.34 590 168.68 590 168 590 C167.9071875 591.85625 167.9071875 591.85625 167.8125 593.75 C166.37756678 605.93736612 160.14245984 614.62389852 151.1796875 622.625 C141.57490599 630.1301316 129.45795208 630.17192593 117.8125 630.125 C116.84119141 630.12886719 115.86988281 630.13273438 114.86914062 630.13671875 C113.92876953 630.13542969 112.98839844 630.13414062 112.01953125 630.1328125 C111.17495361 630.13168457 110.33037598 630.13055664 109.46020508 630.12939453 C106.89104436 629.99426948 104.50713529 629.56386047 102 629 C102 629.66 102 630.32 102 631 C101.34 631 100.68 631 100 631 C100 630.34 100 629.68 100 629 C99.39115967 629.02094727 98.78231934 629.04189453 98.1550293 629.06347656 C71.55412206 629.85866024 71.55412206 629.85866024 60.0625 620.15234375 C52.0446792 611.78526182 48.99657887 600.88158594 46 590 C42.53242222 590.57666501 40.9533644 591.71005167 38.5625 594.25 C37.9540625 594.88550781 37.345625 595.52101563 36.71875 596.17578125 C36.1515625 596.77777344 35.584375 597.37976563 35 598 C33.33333333 599.66666667 31.66666667 601.33333333 30 603 C29.4740625 603.56074219 28.948125 604.12148438 28.40625 604.69921875 C24.1618248 609.1324849 19.62856463 613.02418896 14.8125 616.8125 C14.21832275 617.28059082 13.62414551 617.74868164 13.01196289 618.23095703 C4.66628366 624.70216186 4.66628366 624.70216186 0.57421875 625.43359375 C-14.11496092 622.95939202 -28.63874513 603.49098439 -38.5546875 593.46118164 C-39.69947103 592.3038287 -40.8489146 591.1510854 -42 590 C-43 589 -44 588 -45 587 C-45.1134375 588.15757812 -45.226875 589.31515625 -45.34375 590.5078125 C-46.8694741 602.54937802 -51.9433996 612.87268555 -61 621 C-62.06541016 621.99773437 -62.06541016 621.99773437 -63.15234375 623.015625 C-73.52025026 630.24044874 -83.97996577 629.48212651 -96.125 629.25 C-97.95831382 629.22990356 -99.79164891 629.21165835 -101.625 629.1953125 C-106.08386523 629.15156736 -110.54169438 629.08271439 -115 629 C-115 629.66 -115 630.32 -115 631 C-115.66 631 -116.32 631 -117 631 C-117 630.34 -117 629.68 -117 629 C-118.19496094 629.03480469 -119.38992188 629.06960938 -120.62109375 629.10546875 C-133.95216032 629.38436722 -143.69090832 628.35328185 -154 619 C-160.38460196 611.15327545 -164.18943445 601.90485862 -166 592 C-166.53625 592.06058594 -167.0725 592.12117187 -167.625 592.18359375 C-170.41456592 592.48182037 -173.2063554 592.74264607 -176 593 C-177.19753906 593.11859375 -178.39507812 593.2371875 -179.62890625 593.359375 C-206.05519552 595.56375266 -231.68295787 587.90367562 -253 572 C-253.62000885 571.35672256 -254.2400177 570.71344513 -254.8788147 570.05067444 C-259.0057297 565.78453403 -259.0057297 565.78453403 -264.31745911 563.44857788 C-266.96416398 563.4533718 -269.49425333 563.70114792 -272.12109375 564.02734375 C-274.34516746 564.20580205 -276.57043329 564.36970905 -278.79638672 564.52294922 C-280.70662628 564.65573273 -280.70662628 564.65573273 -282.65545654 564.79119873 C-291.53776129 565.2914287 -300.45725644 565.00036985 -309.34765625 564.87890625 C-311.36534247 564.85477221 -313.38303256 564.83096027 -315.40072632 564.8074646 C-320.56748381 564.74549296 -325.7341167 564.6761099 -330.90075684 564.60510254 C-336.22479409 564.53336442 -341.54892254 564.46918734 -346.87304688 564.40429688 C-357.24879817 564.27676137 -367.62442487 564.14109776 -378 564 C-377.39172429 553.70262466 -375.76927977 543.63209334 -374.09375 533.46875 C-373.80575483 531.70192173 -373.51812292 529.93503422 -373.23083496 528.16809082 C-372.63182165 524.48984591 -372.02979025 520.81211319 -371.42529297 517.13476562 C-370.65089611 512.42351889 -369.88210379 507.71137966 -369.11528778 502.99889374 C-368.52311118 499.36128853 -367.92904894 495.72399348 -367.33430481 492.08680725 C-367.05009511 490.34853157 -366.76622793 488.61019985 -366.48271179 486.87181091 C-366.08724107 484.45005501 -365.68948492 482.02868597 -365.29101562 479.60742188 C-365.1164257 478.53518372 -365.1164257 478.53518372 -364.93830872 477.44128418 C-364.41191929 474.25690581 -363.85643824 471.1138449 -363 468 C-363.66 468 -364.32 468 -365 468 C-365.2467749 467.40614502 -365.4935498 466.81229004 -365.74780273 466.20043945 C-367.20537169 463.63910801 -368.64597709 462.50231953 -371.03515625 460.79296875 C-371.84533203 460.20580078 -372.65550781 459.61863281 -373.49023438 459.01367188 C-374.33908203 458.41103516 -375.18792969 457.80839844 -376.0625 457.1875 C-377.72094036 455.99472368 -379.3784952 454.80071515 -381.03515625 453.60546875 C-382.26322998 452.7244751 -382.26322998 452.7244751 -383.51611328 451.82568359 C-386.81368876 449.40192996 -390.00473973 446.85330593 -393.18530273 444.27856445 C-394.90251271 442.80801271 -394.90251271 442.80801271 -397 443 C-398.69399527 441.36111759 -400.35592509 439.68895626 -402 438 C-410.03870577 430.96613245 -418.47587689 424.43007952 -427 418 C-427.74894531 417.42636719 -428.49789062 416.85273437 -429.26953125 416.26171875 C-432.74308481 413.58575074 -432.74308481 413.58575074 -437 413 C-437.68707555 410.50935112 -438 408.62113708 -438 406 C-436.62898254 404.26821899 -436.62898254 404.26821899 -434.68286133 402.34228516 C-433.95823196 401.61788239 -433.2336026 400.89347961 -432.48701477 400.14712524 C-431.29654793 398.97988419 -431.29654793 398.97988419 -430.08203125 397.7890625 C-428.86793831 396.58133682 -428.86793831 396.58133682 -427.62931824 395.34921265 C-425.03064786 392.767372 -422.42177855 390.19611506 -419.8125 387.625 C-418.07158162 385.89912719 -416.33133863 384.17257282 -414.59179688 382.4453125 C-411.38674568 379.26478549 -408.17786993 376.08823188 -404.96411133 372.91650391 C-403.93080185 371.89535492 -403.93080185 371.89535492 -402.87661743 370.85357666 C-401.72464772 369.71575063 -400.57143032 368.57918406 -399.41610718 367.44476318 C-397.54360328 365.59588884 -395.86771155 363.81871583 -394.3125 361.6875 C-393.6628125 360.8521875 -393.6628125 360.8521875 -393 360 C-392.34 360 -391.68 360 -391 360 C-391 359.34 -391 358.68 -391 358 C-389.125 355.875 -389.125 355.875 -387 354 C-386.34 354 -385.68 354 -385 354 C-384.67 353.01 -384.34 352.02 -384 351 C-382.0533282 349.15600979 -379.99199281 347.50530088 -377.91015625 345.81640625 C-375.95743236 343.95952157 -375.12605394 342.41225916 -374 340 C-374.34144043 339.55833496 -374.68288086 339.11666992 -375.03466797 338.66162109 C-381.48218106 330.30901369 -387.8730197 321.93626569 -393.92724609 313.29248047 C-395.51634305 311.03094317 -397.04071412 308.95928588 -399 307 C-399.9355893 305.65140122 -400.84667715 304.28569514 -401.7421875 302.91015625 C-404.75944882 298.3349208 -407.90648408 293.87275984 -411.125 289.4375 C-411.67978027 288.67099121 -412.23456055 287.90448242 -412.80615234 287.11474609 C-417.64846572 280.44405852 -422.57538075 273.83851631 -427.5390625 267.2578125 C-427.96735352 266.68836914 -428.39564453 266.11892578 -428.83691406 265.53222656 C-429.82087895 264.23597055 -430.82612893 262.95591365 -431.8359375 261.6796875 C-433 260 -433 260 -433 258 C-418.49988166 251.92235109 -403.9820175 245.90874715 -389.3125 240.25 C-387.64888428 239.60538818 -387.64888428 239.60538818 -385.95166016 238.94775391 C-384.4229126 238.3626001 -384.4229126 238.3626001 -382.86328125 237.765625 C-381.96907471 237.42305664 -381.07486816 237.08048828 -380.15356445 236.72753906 C-378 236 -378 236 -376 236 C-375.67 235.34 -375.34 234.68 -375 234 C-373.06640625 233.2890625 -373.06640625 233.2890625 -370.5625 232.625 C-365.92039892 231.32441133 -361.55714488 229.66734781 -357.12890625 227.76953125 C-355 227 -355 227 -352 227 C-351.67 226.34 -351.34 225.68 -351 225 C-349.35766602 224.22216797 -349.35766602 224.22216797 -347.25390625 223.4921875 C-346.49916016 223.22792969 -345.74441406 222.96367187 -344.96679688 222.69140625 C-343.77666992 222.28728516 -343.77666992 222.28728516 -342.5625 221.875 C-341.77294922 221.59785156 -340.98339844 221.32070313 -340.16992188 221.03515625 C-334.29002463 219 -334.29002463 219 -332 219 C-332.33 218.01 -332.66 217.02 -333 216 C-332.34 216 -331.68 216 -331 216 C-330.67 183.66 -330.34 151.32 -330 118 C-318.75141723 118 -318.75141723 118 -314.35424805 118.3671875 C-313.37010422 118.44727051 -312.38596039 118.52735352 -311.37199402 118.60986328 C-310.34560318 118.6973584 -309.31921234 118.78485352 -308.26171875 118.875 C-307.17792435 118.96378418 -306.09412994 119.05256836 -304.97749329 119.14404297 C-301.54716688 119.42553736 -298.11731881 119.71239226 -294.6875 120 C-291.23977596 120.28688915 -287.79196369 120.57258964 -284.34394836 120.85595703 C-282.20687326 121.03180186 -280.06997165 121.20977154 -277.93327332 121.39013672 C-276.96489029 121.47021973 -275.99650726 121.55030273 -274.9987793 121.6328125 C-274.15179977 121.70387207 -273.30482025 121.77493164 -272.43217468 121.84814453 C-267.56558179 122.29811076 -267.56558179 122.29811076 -263 121 C-263 121.66 -263 122.32 -263 123 C-261.70964844 123.06058594 -260.41929687 123.12117188 -259.08984375 123.18359375 C-257.37238745 123.26805881 -255.65493998 123.35270377 -253.9375 123.4375 C-253.08994141 123.47681641 -252.24238281 123.51613281 -251.36914062 123.55664062 C-246.51999791 123.80003389 -241.79371788 124.22598042 -237 125 C-236.67 124.34 -236.34 123.68 -236 123 C-236 123.66 -236 124.32 -236 125 C-229.73 125.33 -223.46 125.66 -217 126 C-216.14921875 123.01195312 -215.2984375 120.02390625 -214.421875 116.9453125 C-210.7848451 104.19964366 -207.06174571 91.47944625 -203.33776855 78.75897217 C-200.16246875 67.90824964 -196.99882857 57.05538327 -193.9375 46.171875 C-193.58857697 44.93469223 -193.58857697 44.93469223 -193.23260498 43.67251587 C-192.15356965 39.84496431 -191.08114916 36.01579482 -190.02050781 32.18310547 C-189.64414494 30.84335008 -189.26753352 29.50366448 -188.890625 28.1640625 C-188.57125977 27.01373535 -188.25189453 25.8634082 -187.92285156 24.67822266 C-187 22 -187 22 -185 20 C-167.10570774 29.48341648 -149.41493664 39.18879494 -132.01953125 49.56640625 C-131.00810059 50.1682373 -129.99666992 50.77006836 -128.95458984 51.39013672 C-126.97697028 52.56825901 -125.00193136 53.75072646 -123.02978516 54.93798828 C-122.14210449 55.46763184 -121.25442383 55.99727539 -120.33984375 56.54296875 C-119.15442993 57.2548938 -119.15442993 57.2548938 -117.94506836 57.98120117 C-116.07067537 59.15466346 -116.07067537 59.15466346 -114 59 C-113.59483154 59.41588379 -113.18966309 59.83176758 -112.7722168 60.26025391 C-110.36141108 62.62688864 -107.55393356 64.16659092 -104.64453125 65.8359375 C-103.71383064 66.37778183 -103.71383064 66.37778183 -102.764328 66.93057251 C-100.78290584 68.08312255 -98.79790359 69.22932449 -96.8125 70.375 C-94.84995579 71.5121887 -92.88820043 72.65071286 -90.92721558 73.79058838 C-89.6640017 74.52417431 -88.39963045 75.25577119 -87.13406372 75.98529053 C-83.78698756 77.92237106 -80.53522249 79.94799475 -77.32421875 82.1015625 C-74.32955482 84.25323195 -74.32955482 84.25323195 -71.91992188 83.73730469 C-69.11885808 82.6616164 -67.76694949 80.88205095 -65.8125 78.625 C-65.01972656 77.71363281 -64.22695313 76.80226563 -63.41015625 75.86328125 C-60.40207175 72.28965737 -57.4477823 68.67589904 -54.51171875 65.04296875 C-51.05850617 60.85937218 -47.47000955 56.79879687 -43.89233398 52.72167969 C-39.72406598 47.93163941 -35.81246186 42.98981157 -32.07055664 37.85986328 C-31.09114348 36.53935785 -30.05104298 35.26423629 -29 34 C-28.34 34 -27.68 34 -27 34 C-26.72921631 33.41532959 -26.45843262 32.83065918 -26.17944336 32.22827148 C-25.00708128 30.01337836 -23.72850139 28.27119424 -22.12890625 26.34765625 C-21.55930176 25.65921631 -20.98969727 24.97077637 -20.40283203 24.26147461 C-19.49186768 23.17298218 -19.49186768 23.17298218 -18.5625 22.0625 C-17.9422998 21.31556885 -17.32209961 20.5686377 -16.68310547 19.79907227 C-11.16425717 13.16386969 -5.59771802 6.56875074 0 0 Z M0 58 C-1.76658081 59.89945184 -3.42110663 61.80896059 -5.0625 63.8125 C-5.55637207 64.40562988 -6.05024414 64.99875977 -6.55908203 65.60986328 C-9.52308411 69.17755512 -12.44912481 72.77601067 -15.375 76.375 C-23.52877281 86.38123997 -32.04388949 96.09908897 -40.8125 105.5703125 C-42.17519459 107.08387685 -43.49692819 108.63668925 -44.75 110.2421875 C-50.28117427 117.28911626 -58.11937826 121.62455017 -67 123 C-78.89593583 124.23915998 -89.92305233 117.80836371 -99.75 111.875 C-100.87744629 111.20919922 -102.00489258 110.54339844 -103.16650391 109.85742188 C-105.41613238 108.52749729 -107.66249496 107.19203008 -109.90527344 105.85058594 C-113.34860627 103.79154027 -116.80730809 101.76002371 -120.26977539 99.73339844 C-122.31933086 98.53261515 -124.36528347 97.32592439 -126.41015625 96.1171875 C-130.46167935 93.7239276 -134.5332757 91.36569771 -138.60546875 89.0078125 C-141.45895388 87.32002037 -144.28837268 85.60204146 -147.11328125 83.8671875 C-148.473927 83.03646729 -148.473927 83.03646729 -149.86206055 82.18896484 C-151.68665422 81.07360397 -153.50723396 79.95164686 -155.32348633 78.82275391 C-156.15775146 78.31405762 -156.9920166 77.80536133 -157.8515625 77.28125 C-158.60260254 76.81783203 -159.35364258 76.35441406 -160.12744141 75.87695312 C-161.05435791 75.44286133 -161.05435791 75.44286133 -162 75 C-164.22696131 75.82712056 -164.22696131 75.82712056 -164.81428528 78.23468018 C-165.07900131 79.22361267 -165.34371735 80.21254517 -165.61645508 81.23144531 C-166.07251884 82.91019745 -166.07251884 82.91019745 -166.53779602 84.62286377 C-166.86176865 85.84559998 -167.18574127 87.06833618 -167.51953125 88.328125 C-168.03997967 90.24685085 -168.56043605 92.16557458 -169.08133221 94.08417892 C-169.99841817 97.47098946 -170.90488792 100.86064085 -171.8125 104.25 C-172.88391722 108.24800137 -173.95770948 112.24530866 -175.04167175 116.2399292 C-175.71610557 118.72811627 -176.38438989 121.21798158 -177.04536438 123.70977783 C-178.95167802 130.74518635 -181.22012939 137.49337869 -183.94633484 144.25506592 C-185.03095801 146.88987706 -185.03095801 146.88987706 -185.53034973 149.30084229 C-186 151 -186 151 -187.83203125 152.06640625 C-188.54746094 152.37449219 -189.26289063 152.68257813 -190 153 C-191.87798601 154.44367661 -193.69560694 155.94428761 -195.51171875 157.46484375 C-202.53527984 161.79806119 -209.9062503 162.51228148 -218 162.75 C-219.42892578 162.81380859 -219.42892578 162.81380859 -220.88671875 162.87890625 C-225.96260354 163.07441108 -225.96260354 163.07441108 -228 163 C-228.33 162.67 -228.66 162.34 -229 162 C-230.48766734 161.79482891 -231.98400091 161.65194954 -233.48120117 161.53515625 C-234.43697556 161.45837646 -235.39274994 161.38159668 -236.37748718 161.30249023 C-237.94440056 161.18369507 -237.94440056 161.18369507 -239.54296875 161.0625 C-240.61815262 160.97750244 -241.69333649 160.89250488 -242.80110168 160.80493164 C-246.26291528 160.53235553 -249.7251882 160.26616537 -253.1875 160 C-255.47333917 159.8207185 -257.75914691 159.64103581 -260.04492188 159.4609375 C-271.02706065 158.59896123 -282.01050436 157.76294468 -293 157 C-292.99555878 157.66604248 -292.99111755 158.33208496 -292.98654175 159.01831055 C-292.94187103 166.02780993 -292.91195447 173.03726808 -292.89013672 180.046875 C-292.8801552 182.65366258 -292.86656524 185.26043918 -292.84912109 187.8671875 C-292.58930194 227.72650182 -292.58930194 227.72650182 -300 239 C-300.36222656 239.62003906 -300.72445312 240.24007812 -301.09765625 240.87890625 C-304.10629274 245.20321658 -308.23258937 247.38127943 -312.86328125 249.6640625 C-313.55708893 250.00802063 -314.25089661 250.35197876 -314.96572876 250.70635986 C-324.37222139 255.26866639 -334.13404794 258.97429466 -343.875 262.75 C-345.78933522 263.49800034 -347.70339919 264.24669523 -349.6171875 264.99609375 C-353.13359203 266.37248232 -356.6516968 267.74434259 -360.17138672 269.11230469 C-365.12726338 271.04249761 -370.06518945 273.01665855 -375 275 C-373.59201946 277.8830323 -372.07829995 280.40530887 -370.1640625 282.984375 C-369.60025879 283.7467749 -369.03645508 284.5091748 -368.45556641 285.29467773 C-367.85147949 286.10493408 -367.24739258 286.91519043 -366.625 287.75 C-366.00157715 288.59183838 -365.3781543 289.43367676 -364.73583984 290.30102539 C-361.22614202 295.03363773 -357.68775874 299.7437776 -354.13208008 304.44189453 C-333.98955727 331.11368806 -333.98955727 331.11368806 -336 346 C-339.47186219 360.02475406 -350.26852842 371.57024308 -361.1875 380.625 C-362.115625 381.40875 -363.04375 382.1925 -364 383 C-364 383.66 -364 384.32 -364 385 C-364.99 385.33 -365.98 385.66 -367 386 C-367 386.66 -367 387.32 -367 388 C-367.66 388 -368.32 388 -369 388 C-370.71334022 389.61864784 -372.3709309 391.2965654 -374 393 C-374.9622228 393.9674576 -375.92709993 394.93228202 -376.89453125 395.89453125 C-377.37470703 396.37470703 -377.85488281 396.85488281 -378.34960938 397.34960938 C-380.56640625 399.56640625 -382.78320312 401.78320312 -385 404 C-381.32493502 408.03574775 -376.99381448 410.99107182 -372.5625 414.125 C-364.90968657 419.59448361 -357.40602221 425.20094487 -350 431 C-348.62714844 432.04607422 -348.62714844 432.04607422 -347.2265625 433.11328125 C-337.97501548 440.2672553 -331.20145517 447.37763393 -328.25 458.9375 C-327.58696938 467.05962505 -328.20517563 474.76561211 -329.49609375 482.79296875 C-329.72559471 484.27836906 -329.72559471 484.27836906 -329.95973206 485.79377747 C-330.44526492 488.92616637 -330.94112156 492.0568134 -331.4375 495.1875 C-331.76697783 497.29871872 -332.09575996 499.41004614 -332.42382812 501.52148438 C-333.02616096 505.39547584 -333.63313856 509.26868629 -334.24389648 513.14135742 C-334.3729538 513.97420258 -334.50201111 514.80704773 -334.63497925 515.66513062 C-334.86785804 517.15474882 -335.10823818 518.64322691 -335.35842896 520.1300354 C-336.02816319 523.66083237 -336.02816319 523.66083237 -335 527 C-319.16 527 -303.32 527 -287 527 C-286.03224517 522.16122587 -286.4065933 519.30457575 -287.4375 514.6875 C-293.33347772 484.75994156 -286.20071979 454.00435708 -273 427 C-272.63390625 426.2486377 -272.2678125 425.49727539 -271.890625 424.72314453 C-264.24681138 409.22849735 -255.18751156 395.25603964 -243.80078125 382.2578125 C-241.79215343 380.22073572 -241.79215343 380.22073572 -242 378 C-241.40703125 377.74605469 -240.8140625 377.49210937 -240.203125 377.23046875 C-237.75602301 375.86373626 -236.50652046 374.48257018 -234.75 372.3125 C-231.14455771 368.07705411 -227.29449797 364.52512537 -223 361 C-221.50339844 359.74703125 -221.50339844 359.74703125 -219.9765625 358.46875 C-206.92818881 347.74157309 -192.49794224 339.6490638 -177 333 C-176.27151855 332.67378662 -175.54303711 332.34757324 -174.79248047 332.01147461 C-168.01413873 329.10344435 -161.24047133 327.61864071 -154 326.3125 C-152.88882813 326.10044922 -151.77765625 325.88839844 -150.6328125 325.66992188 C-108.66452287 317.84407022 -67.21941151 327.04857988 -32 351 C-25.82361673 355.44182101 -19.85706601 360.14668451 -14 365 C-13.36457275 365.52577637 -12.72914551 366.05155273 -12.07446289 366.59326172 C-8.81007978 369.33834069 -5.82315918 372.10728097 -3.0625 375.375 C-2.47597656 376.06335938 -1.88945312 376.75171875 -1.28515625 377.4609375 C-0.86105469 377.96882813 -0.43695313 378.47671875 0 379 C3.82242766 377.44108365 6.06334795 375.04080012 8.875 372.0625 C14.55397817 366.21703398 20.70791042 361.2126695 27.22363281 356.33203125 C28.38164447 355.46368167 29.53491253 354.58895869 30.68261719 353.70703125 C63.32779712 328.63985233 104.25883461 318.90861148 144.92553711 324.00708008 C175.74944681 328.4126166 203.98162162 342.2217741 227 363 C228.47828405 364.25104369 229.95732733 365.50119142 231.4375 366.75 C234.41230188 369.36232602 236.99469724 372.14751018 239.48046875 375.2265625 C241.08495271 377.15006482 241.08495271 377.15006482 243.3828125 379.34375 C271.83254502 408.21810539 291.1042054 453.04528464 291.25 493.4375 C291.25592163 494.87307251 291.25592163 494.87307251 291.26196289 496.33764648 C291.20595387 503.28103269 290.47890524 509.85563698 288.97949219 516.63256836 C288.08536986 520.74065591 288.13584956 522.67924778 289 527 C304.84 527 320.68 527 337 527 C337.04220442 520.39833885 337.04220442 520.39833885 336.35742188 514.04370117 C336.21727661 513.15885544 336.07713135 512.2740097 335.93273926 511.36235046 C335.7796228 510.4319545 335.62650635 509.50155853 335.46875 508.54296875 C335.14964184 506.5228019 334.83063457 504.5026191 334.51171875 502.48242188 C334.00740672 499.33574027 333.5003288 496.18952971 332.99072266 493.04370117 C332.49704038 489.98205542 332.01374476 486.91889454 331.53125 483.85546875 C331.37813354 482.93114548 331.22501709 482.0068222 331.06726074 481.05448914 C328.95578534 467.58063296 329.48139963 455.24022112 337.015625 443.47265625 C342.85914435 436.19126305 351.05003055 430.86604961 358.58984375 425.48046875 C363.45872195 421.97099244 368.22234632 418.31950213 373 414.6875 C373.93320068 413.98093262 374.86640137 413.27436523 375.82788086 412.54638672 C377.15057983 411.53922607 377.15057983 411.53922607 378.5 410.51171875 C379.69109375 409.60619263 379.69109375 409.60619263 380.90625 408.68237305 C382.73718748 407.2111755 384.38266317 405.69930522 386 404 C382.52263974 400.21965377 382.52263974 400.21965377 378 398 C377.32741405 396.66964277 376.66201689 395.33564811 376 394 C374.44512328 392.30752357 372.83470774 390.66525535 371.1875 389.0625 C370.33542969 388.22847656 369.48335937 387.39445312 368.60546875 386.53515625 C367.74566406 385.69855469 366.88585937 384.86195313 366 384 C364.33083271 382.33583771 362.66395002 380.66937889 361 379 C360.3915625 378.3915625 359.783125 377.783125 359.15625 377.15625 C358.00195294 376.00195294 356.848361 374.84695052 355.6953125 373.69140625 C354.26458583 372.26397619 352.82119218 370.84925903 351.375 369.4375 C343.7373208 361.59882924 338.40323515 353.32232537 337.859375 342.09765625 C338.18946327 328.48151505 345.29560384 318.29194122 353.52734375 308.08203125 C355.77834542 305.27628035 357.90571944 302.42353105 360 299.5 C363.82422994 294.19592548 367.79796203 289.01715869 371.80078125 283.84765625 C372.52652344 282.90792969 373.25226562 281.96820313 374 281 C374.59167969 280.25621094 375.18335938 279.51242187 375.79296875 278.74609375 C377.18954523 277.0795834 377.18954523 277.0795834 377 275 C376.42609528 274.77973145 375.85219055 274.55946289 375.26089478 274.33251953 C369.18964806 272.00125668 363.12100374 269.66331067 357.05371094 267.32177734 C354.80076712 266.45326141 352.54720397 265.58634997 350.29296875 264.72119141 C339.37157895 260.52850484 328.45340671 256.32367204 317.7109375 251.6875 C316.99298004 251.38642334 316.27502258 251.08534668 315.53530884 250.77514648 C311.14159338 248.83350001 308.18367941 246.57973869 305 243 C304.319375 242.236875 303.63875 241.47375 302.9375 240.6875 C295.48774045 230.35396255 294.70642464 220.16881888 294.65625 207.7265625 C294.64259257 206.35272082 294.62780301 204.97888998 294.61193848 203.60507202 C294.55588295 198.54076279 294.52020952 193.47635046 294.48431396 188.41186523 C294.45310086 184.11228959 294.41398116 179.81293114 294.36405945 175.51353073 C294.34398783 173.50041577 294.33567647 171.48746781 294.32775879 169.47427368 C294.31434448 168.25895966 294.30093018 167.04364563 294.28710938 165.79150391 C294.27981812 164.71865143 294.27252686 163.64579895 294.26501465 162.54043579 C294.25210704 159.8321576 294.25210704 159.8321576 292 158 C288.89536141 157.93394386 285.90731647 158.01123679 282.8125 158.1875 C281.83812988 158.23648438 280.86375977 158.28546875 279.85986328 158.3359375 C269.35538996 158.90605817 258.86442827 159.70527496 248.375 160.5 C247.5041275 160.5655307 246.633255 160.6310614 245.73599243 160.69857788 C243.22732244 160.88892622 240.71908374 161.0841317 238.2109375 161.28125 C237.45655899 161.33855789 236.70218048 161.39586578 235.92494202 161.45491028 C232.21283335 161.75303073 228.6415939 162.23413818 225 163 C222.75089001 163.06662056 220.49997984 163.08540703 218.25 163.0625 C217.10015625 163.05347656 215.9503125 163.04445313 214.765625 163.03515625 C213.85296875 163.02355469 212.9403125 163.01195312 212 163 C211.67 163 211.34 163 211 163 C199.23961545 159.02896106 191.47903094 153.84715183 185.8327179 142.62132263 C180.83784497 132.00743265 178.25577292 120.33766196 175.1875 109.0625 C174.51499772 106.63179425 173.84117914 104.20145227 173.16601562 101.77148438 C171.93350173 97.32909492 170.70856617 92.88477805 169.49291992 88.43774414 C168.35636167 84.2834385 167.19503593 80.13784388 166 76 C165.34 76.66 164.68 77.32 164 78 C163.01 77.67 162.02 77.34 161 77 C158.6407434 77.99449155 158.6407434 77.99449155 156.125 79.578125 C155.14982422 80.15626953 154.17464844 80.73441406 153.16992188 81.33007812 C152.12384766 81.96365234 151.07777344 82.59722656 150 83.25 C147.80228641 84.55763304 145.60436758 85.86492118 143.40625 87.171875 C142.31570313 87.82478516 141.22515625 88.47769531 140.1015625 89.15039062 C135.92443278 91.64141194 131.71548557 94.07467102 127.5 96.5 C119.04534646 101.38411483 110.61186962 106.30433876 102.18164062 111.23046875 C100.28889126 112.33594594 98.395149 113.43972555 96.50024414 114.54150391 C94.97401917 115.43181423 93.45139032 116.32837439 91.93530273 117.23583984 C83.84356108 122.02695931 74.92279678 124.3529896 65.6015625 122.53125 C59.95545036 121.07194717 55.60975002 118.73342923 50.91015625 115.3046875 C48.93053434 113.82465299 48.93053434 113.82465299 46 113 C45.29325371 111.68747118 44.63815344 110.34721283 44 109 C40.04672944 103.05597534 35.57767878 97.56563967 30.75 92.3125 C27.07595932 88.25612013 23.63124418 84.08300318 20.24609375 79.78515625 C16.991119 75.74898756 13.60367763 71.83036428 10.21166992 67.90917969 C9.7241626 67.34489258 9.23665527 66.78060547 8.734375 66.19921875 C8.26708984 65.65958496 7.79980469 65.11995117 7.31835938 64.56396484 C6.08964289 63.10634302 4.9246525 61.59565632 3.765625 60.08203125 C3.18296875 59.39496094 2.6003125 58.70789063 2 58 C1.34 58 0.68 58 0 58 Z M-215.5625 403.6875 C-236.21922516 427.376405 -254.51565502 460.1627926 -254.0625 492.4375 C-254.05347656 493.28183594 -254.04445313 494.12617187 -254.03515625 494.99609375 C-254.02355469 495.65738281 -254.01195312 496.31867188 -254 497 C-254 497.33 -254 497.66 -254 498 C-253.5420274 511.28120534 -250.54383792 523.49907605 -242 534 C-241.34 534 -240.68 534 -240 534 C-239.77957031 534.56976562 -239.55914062 535.13953125 -239.33203125 535.7265625 C-233.30509701 546.01300158 -217.41923588 552.02119957 -206.625 554.875 C-199.63940964 556.28571533 -192.0610432 557.26565869 -185 556 C-182.21087923 553.77338532 -182.21087923 553.77338532 -180 551 C-163.42761804 533.09292957 -141.14050268 522.42636224 -116.69995117 520.77734375 C-87.96708362 519.80978075 -64.50948777 525.13510034 -41.1875 542.5 C-26.03553876 553.70633505 -9.94330519 558.92145148 9 557 C13.82114498 556.03477593 18.38285493 554.68084832 23 553 C23.76022461 552.73300293 24.52044922 552.46600586 25.30371094 552.19091797 C31.71181582 549.81492099 36.96720756 546.60107179 42.5 542.625 C44.16139637 541.46029141 45.82414261 540.2975058 47.48828125 539.13671875 C48.27025879 538.58935059 49.05223633 538.04198242 49.85791016 537.47802734 C53.78616143 534.76756082 57.83466874 532.32390103 62 530 C62.58523438 529.63777344 63.17046875 529.27554688 63.7734375 528.90234375 C82.63139304 518.07343042 113.90341419 517.66618301 134.17041016 523.09350586 C136.13374597 523.68073384 138.06569741 524.32342564 140 525 C141.06782715 525.3700415 141.06782715 525.3700415 142.15722656 525.74755859 C157.08093609 531.08119677 172.88832622 539.34923989 181.625 553.0625 C183.76231018 555.6165559 184.91249411 555.98371739 188.25390625 556.60546875 C206.90675474 557.29082664 224.63001625 551.02786464 238.9375 539.125 C249.44935337 529.12115441 255.71465258 515.88430824 256.30078125 501.34375 C256.32031246 499.72928008 256.32370548 498.11454917 256.3125 496.5 C256.30686035 495.63197754 256.3012207 494.76395508 256.29541016 493.86962891 C255.98387387 476.97572574 251.8400391 460.00981578 244 445 C243.50242187 443.9584375 243.00484375 442.916875 242.4921875 441.84375 C236.15235343 428.7353008 228.61885973 416.97754297 219 406 C218.55285645 405.4858252 218.10571289 404.97165039 217.64501953 404.44189453 C197.03818345 380.89223531 169.52708879 363.05594164 138 359 C133.14250375 358.6840029 128.3044371 358.61819656 123.4375 358.625 C122.77836609 358.62554382 122.11923218 358.62608765 121.44012451 358.62664795 C110.45546097 358.66820238 100.4476797 359.62184787 90 363 C89.32904297 363.20898926 88.65808594 363.41797852 87.96679688 363.63330078 C48.5534431 376.19701313 21.02410968 408.26120366 1 443 C-1.5552196 439.82073337 -3.58880892 436.40695751 -5.66577148 432.90893555 C-12.62514882 421.21752223 -20.34450023 410.7526412 -29.5 400.6875 C-30.0168335 400.11733154 -30.53366699 399.54716309 -31.06616211 398.9597168 C-32.33423303 397.59824688 -33.66236483 396.29318843 -35 395 C-35.66 395 -36.32 395 -37 395 C-37.25265625 394.40574219 -37.5053125 393.81148437 -37.765625 393.19921875 C-45.94343824 378.62925403 -73.98144316 367.72065319 -89.26953125 363.03125 C-138.32230687 349.47111098 -181.93264585 367.99743857 -215.5625 403.6875 Z M-146 567 C-135.53463628 570.48845457 -122.29277462 569.20144242 -111.3125 569.1875 C-110.20903732 569.18759064 -110.20903732 569.18759064 -109.08328247 569.18768311 C-100.00402848 569.17709735 -90.98140567 569.01232339 -81.9375 568.125 C-81.12385986 568.04660889 -80.31021973 567.96821777 -79.47192383 567.88745117 C-77.63643114 567.67447766 -75.81429577 567.35031694 -74 567 C-73.67 566.34 -73.34 565.68 -73 565 C-91.58130063 554.83287324 -129.31692267 550.31692267 -146 567 Z M75 564 C75 564.99 75 565.98 75 567 C87.01235812 568.96693583 98.98237108 569.22252658 111.125 569.25 C111.88582886 569.25499512 112.64665771 569.25999023 113.43054199 569.26513672 C124.10845473 569.32251709 134.4384752 568.57677585 145 567 C142.71616833 562.43233666 133.71981981 560.63115016 129 559 C112.43176008 553.87629575 90.01484608 555.29138927 75 564 Z " fill="#FEFEFE" transform="translate(511,192)"/>
<path d="M0 0 C4.79145754 3.87911152 9.58145737 7.81211582 13 13 C13 13.66 13 14.32 13 15 C13.66 15 14.32 15 15 15 C20.65726776 25.32588679 25.08862749 35.30601229 27 47 C24.5437614 49.4562386 18.57480466 48.17336968 15.13671875 48.18554688 C14.41661621 48.18546631 13.69651367 48.18538574 12.95458984 48.18530273 C10.77291002 48.18747717 8.59174569 48.20559394 6.41015625 48.22460938 C5.01823089 48.22754571 3.62630314 48.2295289 2.234375 48.23046875 C0.96819336 48.23457764 -0.29798828 48.23868652 -1.60253906 48.24291992 C-4.90482377 48.00680514 -7.08826503 47.53963958 -10 46 C-11.9921875 43.390625 -11.9921875 43.390625 -13.875 40.25 C-18.9145913 32.39914416 -23.18836304 27.79857167 -32.39453125 25.47265625 C-42.22756114 23.68885323 -49.6854944 25.70500653 -58.125 30.9375 C-62.09108596 34.47664186 -64.44691708 39.62709618 -66.97265625 44.234375 C-69 47 -69 47 -71.18603516 47.66674805 C-74.49915825 48.05911426 -77.71383973 48.111856 -81.05078125 48.09765625 C-81.70958786 48.0962413 -82.36839447 48.09482635 -83.04716492 48.09336853 C-85.13565762 48.087805 -87.22404011 48.07525947 -89.3125 48.0625 C-90.73502449 48.05748028 -92.15755066 48.0529182 -93.58007812 48.04882812 C-97.05342077 48.03784757 -100.52669961 48.02060835 -104 48 C-103.57286904 41.66435915 -102.73859284 35.99053558 -100.4375 30.0625 C-100.17573975 29.37865234 -99.91397949 28.69480469 -99.64428711 27.99023438 C-97.05301866 21.57045908 -93.43254741 16.30864778 -89 11 C-88.43410156 10.27296875 -87.86820313 9.5459375 -87.28515625 8.796875 C-66.24110016 -17.14920828 -26.12618166 -18.82732002 0 0 Z " fill="#FEFEFE" transform="translate(667,610)"/>
<path d="M0 0 C8.23828125 8.28141361 8.23828125 8.28141361 8.23828125 11.25 C8.89828125 11.25 9.55828125 11.25 10.23828125 11.25 C20.23828125 32.8390411 20.23828125 32.8390411 20.23828125 42.25 C15.91497346 42.2996011 11.5918184 42.3358144 7.26831055 42.35986328 C5.79888013 42.36989352 4.32946954 42.38352101 2.86010742 42.40087891 C0.74262588 42.42525898 -1.37459074 42.43651286 -3.4921875 42.4453125 C-4.76473389 42.45578613 -6.03728027 42.46625977 -7.34838867 42.47705078 C-10.65305758 42.25722802 -12.83663186 41.76048477 -15.76171875 40.25 C-17.3515625 38.33203125 -17.3515625 38.33203125 -18.69921875 36.0625 C-23.77238401 28.03321554 -28.34499213 22.45577299 -37.71875 19.66796875 C-45.88401564 17.99744595 -53.35716725 19.56620483 -60.76171875 23.25 C-61.77801348 24.23343532 -62.7823917 25.22974585 -63.76171875 26.25 C-64.42171875 26.25 -65.08171875 26.25 -65.76171875 26.25 C-66.03242188 26.80429687 -66.303125 27.35859375 -66.58203125 27.9296875 C-67.86627585 30.45565205 -69.22208133 32.91954127 -70.63671875 35.375 C-71.12914062 36.24382813 -71.6215625 37.11265625 -72.12890625 38.0078125 C-73.9819792 40.55246292 -74.83653635 41.16902012 -77.76171875 42.25 C-81.15332031 42.47705078 -81.15332031 42.47705078 -85.15234375 42.4453125 C-85.8569574 42.4424826 -86.56157104 42.43965271 -87.28753662 42.43673706 C-89.52910635 42.42557801 -91.77027061 42.40048193 -94.01171875 42.375 C-95.53515046 42.36496464 -97.05858846 42.35583976 -98.58203125 42.34765625 C-102.30872461 42.32565291 -106.03518208 42.29115272 -109.76171875 42.25 C-111.90391113 37.96561524 -108.85464155 31.76572057 -107.46679688 27.30908203 C-101.31565322 9.34552746 -88.91558751 -4.21590635 -72.3125 -13.0546875 C-48.32102684 -24.50936225 -18.89392818 -17.83924319 0 0 Z " fill="#FEFEFE" transform="translate(440.76171875,615.75)"/>
<path d="M0 0 C0.66 0.33 1.32 0.66 2 1 C0.92492371 2.29854721 -0.16043736 3.58858361 -1.25 4.875 C-1.85328125 5.59429687 -2.4565625 6.31359375 -3.078125 7.0546875 C-4.97087634 8.97052118 -6.53657727 9.96449045 -9 11 C-8.06558465 9.72689688 -7.12732889 8.456612 -6.1875 7.1875 C-5.66542969 6.47980469 -5.14335937 5.77210938 -4.60546875 5.04296875 C-3.16871123 3.21468607 -1.68184237 1.60103312 0 0 Z " fill="#E7E8E8" transform="translate(511,192)"/>
<path d="M0 0 C0.33 0 0.66 0 1 0 C1 1.65 1 3.3 1 5 C0.67 5 0.34 5 0 5 C0 3.35 0 1.7 0 0 Z " fill="#FCFDFE" transform="translate(682,292)"/>
<path d="M0 0 C0.33 0.99 0.66 1.98 1 3 C0.34 2.67 -0.32 2.34 -1 2 C-0.67 1.34 -0.34 0.68 0 0 Z " fill="#FEFEFF" transform="translate(220,668)"/>
<path d="M0 0 C4 1 4 1 4 1 Z " fill="#F6F7F8" transform="translate(730,356)"/>
<path d="M0 0 C4 1 4 1 4 1 Z " fill="#ECEDED" transform="translate(584,317)"/>
<path d="M0 0 C4 1 4 1 4 1 Z " fill="#F5F7F6" transform="translate(792,312)"/>
<path d="M0 0 C3 1 3 1 3 1 Z " fill="#EFF0F0" transform="translate(418,822)"/>
<path d="M0 0 C0.66 0.66 1.32 1.32 2 2 C1.34 2 0.68 2 0 2 C0 1.34 0 0.68 0 0 Z " fill="#FDFDFD" transform="translate(330,739)"/>
<path d="M0 0 C3 1 3 1 3 1 Z " fill="#FEFFFF" transform="translate(802,717)"/>
<path d="" fill="#FEFEFF" transform="translate(0,0)"/>
<path d="" fill="#FDFDFD" transform="translate(0,0)"/>
<path d="M0 0 C0.66 0 1.32 0 2 0 C1.67 0.66 1.34 1.32 1 2 C0.67 1.34 0.34 0.68 0 0 Z " fill="#FEFCFE" transform="translate(761,661)"/>
<path d="" fill="#FCFBFE" transform="translate(0,0)"/>
<path d="M0 0 C3 1 3 1 3 1 Z " fill="#FAFBFB" transform="translate(270,315)"/>
<path d="M0 0 C2 1 2 1 2 1 Z " fill="#ECEEEE" transform="translate(635,822)"/>
<path d="M0 0 C2 1 2 1 2 1 Z " fill="#EDEEEE" transform="translate(599,822)"/>
<path d="M0 0 C2 1 2 1 2 1 Z " fill="#ECECED" transform="translate(596,822)"/>
<path d="" fill="#F8F9F9" transform="translate(0,0)"/>
<path d="M0 0 C2 1 2 1 2 1 Z " fill="#F3F3F4" transform="translate(282,779)"/>
<path d="M0 0 C2 1 2 1 2 1 Z " fill="#FFFFFF" transform="translate(430,755)"/>
<path d="" fill="#C9CCCC" transform="translate(0,0)"/>
<path d="M0 0 C2 1 2 1 2 1 Z " fill="#FCFCFC" transform="translate(411,750)"/>
<path d="M0 0 C2 1 2 1 2 1 Z " fill="#FAFCFB" transform="translate(404,750)"/>
<path d="M0 0 C2 1 2 1 2 1 Z " fill="#FDFEFD" transform="translate(316,746)"/>
<path d="M0 0 C2 1 2 1 2 1 Z " fill="#FEFEFC" transform="translate(337,731)"/>
<path d="" fill="#FDFEFD" transform="translate(0,0)"/>
<path d="M0 0 C2 1 2 1 2 1 Z " fill="#FAFBFB" transform="translate(638,712)"/>
<path d="" fill="#FDFEFE" transform="translate(0,0)"/>
<path d="" fill="#FFFFFE" transform="translate(0,0)"/>
<path d="" fill="#FDFEFF" transform="translate(0,0)"/>
<path d="" fill="#FCFBFB" transform="translate(0,0)"/>
<path d="" fill="#FEFEFD" transform="translate(0,0)"/>
<path d="" fill="#FDFFFF" transform="translate(0,0)"/>
<path d="M0 0 C2 1 2 1 2 1 Z " fill="#FCFCFD" transform="translate(707,579)"/>
<path d="" fill="#FDFEFE" transform="translate(0,0)"/>
<path d="M0 0 C2 1 2 1 2 1 Z " fill="#FCFCFC" transform="translate(580,565)"/>
<path d="M0 0 C2 1 2 1 2 1 Z " fill="#FEFDFD" transform="translate(441,565)"/>
<path d="M0 0 C2 1 2 1 2 1 Z " fill="#FCFDFE" transform="translate(661,555)"/>
<path d="M0 0 C2 1 2 1 2 1 Z " fill="#F8F8F9" transform="translate(721,539)"/>
<path d="" fill="#F7F7F7" transform="translate(0,0)"/>
<path d="" fill="#F8F9F8" transform="translate(0,0)"/>
<path d="M0 0 C2 1 2 1 2 1 Z " fill="#F3F5F4" transform="translate(702,528)"/>
<path d="M0 0 C2 1 2 1 2 1 Z " fill="#F7F6F7" transform="translate(316,528)"/>
<path d="M0 0 C2 1 2 1 2 1 Z " fill="#F3F4F3" transform="translate(686,521)"/>
<path d="" fill="#F1F3F2" transform="translate(0,0)"/>
<path d="M0 0 C2 1 2 1 2 1 Z " fill="#F4F4F4" transform="translate(406,513)"/>
<path d="M0 0 C2 1 2 1 2 1 Z " fill="#F3F4F5" transform="translate(389,512)"/>
<path d="M0 0 C2 1 2 1 2 1 Z " fill="#F4F5F5" transform="translate(383,512)"/>
<path d="" fill="#F7F7FA" transform="translate(0,0)"/>
<path d="" fill="#F5F5F6" transform="translate(0,0)"/>
<path d="M0 0 C2 1 2 1 2 1 Z " fill="#FCFDFF" transform="translate(872,481)"/>
<path d="" fill="#FCFCFC" transform="translate(0,0)"/>
<path d="M0 0 C2 1 2 1 2 1 Z " fill="#D1CFD0" transform="translate(77,448)"/>
<path d="" fill="#EFF0F0" transform="translate(0,0)"/>
<path d="M0 0 C2 1 2 1 2 1 Z " fill="#F9F9F8" transform="translate(151,419)"/>
<path d="" fill="#FCFAFC" transform="translate(0,0)"/>
<path d="" fill="#FAF9FA" transform="translate(0,0)"/>
<path d="" fill="#F8FAFA" transform="translate(0,0)"/>
<path d="" fill="#F7F7F6" transform="translate(0,0)"/>
<path d="M0 0 C2 1 2 1 2 1 Z " fill="#F6F6F7" transform="translate(290,356)"/>
<path d="" fill="#F3F5F3" transform="translate(0,0)"/>
<path d="" fill="#F5F5F5" transform="translate(0,0)"/>
<path d="" fill="#F7F7F8" transform="translate(0,0)"/>
<path d="M0 0 C2 1 2 1 2 1 Z " fill="#EFEDF0" transform="translate(433,316)"/>
<path d="" fill="#FAFCFA" transform="translate(0,0)"/>
<path d="" fill="#FBFCFB" transform="translate(0,0)"/>
<path d="M0 0 C2 1 2 1 2 1 Z " fill="#FCFCFC" transform="translate(291,314)"/>
<path d="M0 0 C2 1 2 1 2 1 Z " fill="#E2E1E2" transform="translate(188,308)"/>
<path d="" fill="#FDFDFC" transform="translate(0,0)"/>
<path d="" fill="#FAFBFC" transform="translate(0,0)"/>
<path d="M0 0 C2 1 2 1 2 1 Z " fill="#FDFDFD" transform="translate(583,275)"/>
<path d="" fill="#FDFDFC" transform="translate(0,0)"/>
<path d="M0 0 C2 1 2 1 2 1 Z " fill="#F8F9F9" transform="translate(617,256)"/>
<path d="" fill="#FDFDFD" transform="translate(0,0)"/>
<path d="" fill="#F9FAFC" transform="translate(0,0)"/>
<path d="" fill="#F9F9F9" transform="translate(0,0)"/>
<path d="M0 0 C2 1 2 1 2 1 Z " fill="#F5F7F7" transform="translate(378,240)"/>
<path d="M0 0 C2 1 2 1 2 1 Z " fill="#F4F4F5" transform="translate(479,227)"/>
<path d="" fill="#F1F2F3" transform="translate(0,0)"/>
<path d="" fill="#000000" transform="translate(0,0)"/>
<path d="" fill="#000000" transform="translate(0,0)"/>
<path d="" fill="#000000" transform="translate(0,0)"/>
<path d="" fill="#000100" transform="translate(0,0)"/>
<path d="" fill="#000000" transform="translate(0,0)"/>
<path d="" fill="#000000" transform="translate(0,0)"/>
<path d="" fill="#000000" transform="translate(0,0)"/>
<path d="" fill="#050404" transform="translate(0,0)"/>
<path d="" fill="#000000" transform="translate(0,0)"/>
<path d="" fill="#000000" transform="translate(0,0)"/>
<path d="" fill="#060603" transform="translate(0,0)"/>
<path d="" fill="#000000" transform="translate(0,0)"/>
<path d="" fill="#000000" transform="translate(0,0)"/>
<path d="" fill="#010101" transform="translate(0,0)"/>
<path d="" fill="#0B0D0D" transform="translate(0,0)"/>
<path d="" fill="#000000" transform="translate(0,0)"/>
<path d="" fill="#000000" transform="translate(0,0)"/>
<path d="" fill="#000000" transform="translate(0,0)"/>
<path d="" fill="#000000" transform="translate(0,0)"/>
<path d="" fill="#040507" transform="translate(0,0)"/>
<path d="" fill="#000000" transform="translate(0,0)"/>
<path d="" fill="#010001" transform="translate(0,0)"/>
<path d="" fill="#000000" transform="translate(0,0)"/>
<path d="" fill="#000000" transform="translate(0,0)"/>
<path d="" fill="#030202" transform="translate(0,0)"/>
<path d="" fill="#000000" transform="translate(0,0)"/>
<path d="" fill="#2B2A2D" transform="translate(0,0)"/>
<path d="" fill="#000000" transform="translate(0,0)"/>
<path d="" fill="#040305" transform="translate(0,0)"/>
<path d="" fill="#E8EAEB" transform="translate(0,0)"/>
<path d="" fill="#ECEEF0" transform="translate(0,0)"/>
<path d="" fill="#E9E9E8" transform="translate(0,0)"/>
<path d="" fill="#EDEEEC" transform="translate(0,0)"/>
<path d="" fill="#ECECEB" transform="translate(0,0)"/>
<path d="" fill="#ECEEED" transform="translate(0,0)"/>
<path d="" fill="#EEF0F1" transform="translate(0,0)"/>
<path d="" fill="#F0F2F1" transform="translate(0,0)"/>
<path d="" fill="#EDF0EF" transform="translate(0,0)"/>
<path d="" fill="#EEEEF0" transform="translate(0,0)"/>
<path d="" fill="#EAEAEB" transform="translate(0,0)"/>
<path d="" fill="#E7EBE9" transform="translate(0,0)"/>
<path d="" fill="#E9EBEC" transform="translate(0,0)"/>
<path d="" fill="#E8EAE5" transform="translate(0,0)"/>
<path d="" fill="#EDEEEF" transform="translate(0,0)"/>
<path d="" fill="#E9EBE9" transform="translate(0,0)"/>
<path d="" fill="#ECEEEE" transform="translate(0,0)"/>
<path d="" fill="#EAEAED" transform="translate(0,0)"/>
<path d="" fill="#F3F3F3" transform="translate(0,0)"/>
<path d="" fill="#F0F2F1" transform="translate(0,0)"/>
<path d="" fill="#F1F1F0" transform="translate(0,0)"/>
<path d="" fill="#EEEEED" transform="translate(0,0)"/>
<path d="" fill="#F8FAF6" transform="translate(0,0)"/>
<path d="" fill="#F8F7FA" transform="translate(0,0)"/>
<path d="" fill="#F9F8F9" transform="translate(0,0)"/>
<path d="" fill="#FBFCFD" transform="translate(0,0)"/>
<path d="" fill="#F9FBF8" transform="translate(0,0)"/>
<path d="" fill="#131111" transform="translate(0,0)"/>
<path d="" fill="#FBF9FB" transform="translate(0,0)"/>
<path d="" fill="#FAFAF9" transform="translate(0,0)"/>
<path d="" fill="#FFFDFF" transform="translate(0,0)"/>
<path d="" fill="#F4F7F7" transform="translate(0,0)"/>
<path d="" fill="#FEFBFF" transform="translate(0,0)"/>
<path d="" fill="#F6F7F8" transform="translate(0,0)"/>
<path d="" fill="#F8F7F9" transform="translate(0,0)"/>
<path d="" fill="#FCFEFC" transform="translate(0,0)"/>
<path d="" fill="#FEFFFB" transform="translate(0,0)"/>
<path d="" fill="#FCFCFA" transform="translate(0,0)"/>
<path d="" fill="#F2F0F1" transform="translate(0,0)"/>
<path d="" fill="#F1F2F2" transform="translate(0,0)"/>
<path d="" fill="#F0F1F2" transform="translate(0,0)"/>
<path d="" fill="#FFFEFE" transform="translate(0,0)"/>
<path d="" fill="#F3F4F3" transform="translate(0,0)"/>
<path d="" fill="#F1F1F2" transform="translate(0,0)"/>
<path d="" fill="#F4F6F6" transform="translate(0,0)"/>
<path d="" fill="#F4F5F4" transform="translate(0,0)"/>
<path d="" fill="#F2F3F3" transform="translate(0,0)"/>
<path d="" fill="#E4E5E8" transform="translate(0,0)"/>
<path d="" fill="#F1F2F2" transform="translate(0,0)"/>
<path d="" fill="#F2F5F4" transform="translate(0,0)"/>
<path d="" fill="#FEFFFF" transform="translate(0,0)"/>
<path d="" fill="#BDBEC0" transform="translate(0,0)"/>
<path d="" fill="#E2E1E4" transform="translate(0,0)"/>
<path d="" fill="#F3F6F5" transform="translate(0,0)"/>
<path d="" fill="#F7F8F9" transform="translate(0,0)"/>
<path d="" fill="#FAF8F8" transform="translate(0,0)"/>
<path d="" fill="#FEFFFE" transform="translate(0,0)"/>
<path d="" fill="#F5F5F6" transform="translate(0,0)"/>
<path d="" fill="#F5F4F7" transform="translate(0,0)"/>
<path d="" fill="#EEEEEE" transform="translate(0,0)"/>
<path d="" fill="#E5E8E7" transform="translate(0,0)"/>
<path d="" fill="#D6D6D7" transform="translate(0,0)"/>
<path d="" fill="#FEFDFF" transform="translate(0,0)"/>
<path d="" fill="#FEFFFE" transform="translate(0,0)"/>
<path d="" fill="#C1C0C0" transform="translate(0,0)"/>
<path d="" fill="#FFFFFE" transform="translate(0,0)"/>
<path d="" fill="#FFFFFE" transform="translate(0,0)"/>
<path d="" fill="#FAFBFD" transform="translate(0,0)"/>
<path d="" fill="#FEFDFC" transform="translate(0,0)"/>
<path d="" fill="#FCFBFD" transform="translate(0,0)"/>
<path d="" fill="#FBFBFD" transform="translate(0,0)"/>
<path d="" fill="#FBFBFB" transform="translate(0,0)"/>
<path d="" fill="#CDCDCE" transform="translate(0,0)"/>
<path d="" fill="#FFFDFD" transform="translate(0,0)"/>
<path d="" fill="#FDFFFE" transform="translate(0,0)"/>
<path d="" fill="#FBFEFD" transform="translate(0,0)"/>
<path d="" fill="#FDFDFC" transform="translate(0,0)"/>
<path d="" fill="#FBFDFD" transform="translate(0,0)"/>
<path d="" fill="#D0D4D6" transform="translate(0,0)"/>
<path d="" fill="#FEFFFD" transform="translate(0,0)"/>
<path d="" fill="#F8FCFA" transform="translate(0,0)"/>
<path d="" fill="#FDFFFE" transform="translate(0,0)"/>
<path d="" fill="#FDFEFD" transform="translate(0,0)"/>
<path d="" fill="#FDFFFB" transform="translate(0,0)"/>
<path d="" fill="#FDFCFE" transform="translate(0,0)"/>
<path d="" fill="#FBFEFD" transform="translate(0,0)"/>
<path d="" fill="#FEFFFE" transform="translate(0,0)"/>
<path d="" fill="#FFFCFD" transform="translate(0,0)"/>
<path d="" fill="#FCFCFA" transform="translate(0,0)"/>
<path d="" fill="#FCFCFC" transform="translate(0,0)"/>
<path d="" fill="#FCFCFD" transform="translate(0,0)"/>
<path d="" fill="#FCFFFF" transform="translate(0,0)"/>
<path d="" fill="#FEFDFF" transform="translate(0,0)"/>
<path d="" fill="#FFFFFD" transform="translate(0,0)"/>
<path d="" fill="#FDFCFD" transform="translate(0,0)"/>
<path d="" fill="#FCFDFD" transform="translate(0,0)"/>
<path d="" fill="#FDFCFE" transform="translate(0,0)"/>
<path d="" fill="#FFFFFF" transform="translate(0,0)"/>
<path d="" fill="#FDFDFD" transform="translate(0,0)"/>
<path d="" fill="#FDFEFE" transform="translate(0,0)"/>
<path d="" fill="#FFFDFF" transform="translate(0,0)"/>
<path d="" fill="#FCFDFE" transform="translate(0,0)"/>
<path d="" fill="#FEFDFF" transform="translate(0,0)"/>
<path d="" fill="#FDFDFF" transform="translate(0,0)"/>
<path d="" fill="#FEFFFF" transform="translate(0,0)"/>
<path d="" fill="#FFFEFF" transform="translate(0,0)"/>
<path d="" fill="#FEFEFE" transform="translate(0,0)"/>
<path d="" fill="#FDFCFF" transform="translate(0,0)"/>
<path d="" fill="#FEFDFE" transform="translate(0,0)"/>
<path d="" fill="#FDFFFF" transform="translate(0,0)"/>
<path d="" fill="#FCFFFF" transform="translate(0,0)"/>
<path d="" fill="#F3F2F7" transform="translate(0,0)"/>
<path d="" fill="#FDFFFE" transform="translate(0,0)"/>
<path d="" fill="#FFFEFE" transform="translate(0,0)"/>
<path d="" fill="#FFFFFE" transform="translate(0,0)"/>
<path d="" fill="#FFFEFD" transform="translate(0,0)"/>
<path d="" fill="#FFFFFF" transform="translate(0,0)"/>
<path d="" fill="#FDFFFF" transform="translate(0,0)"/>
<path d="" fill="#FCFDFF" transform="translate(0,0)"/>
<path d="" fill="#FBFDFC" transform="translate(0,0)"/>
<path d="" fill="#F3F2F3" transform="translate(0,0)"/>
<path d="" fill="#FEFEFE" transform="translate(0,0)"/>
<path d="" fill="#FEFFFF" transform="translate(0,0)"/>
<path d="" fill="#FDFEFE" transform="translate(0,0)"/>
<path d="" fill="#FDFCFE" transform="translate(0,0)"/>
<path d="" fill="#FCFDFF" transform="translate(0,0)"/>
<path d="" fill="#FCFDFD" transform="translate(0,0)"/>
<path d="" fill="#FEFFFF" transform="translate(0,0)"/>
<path d="" fill="#F5F5F8" transform="translate(0,0)"/>
<path d="" fill="#FEFFFF" transform="translate(0,0)"/>
<path d="" fill="#FEFEFF" transform="translate(0,0)"/>
<path d="" fill="#FEFEFF" transform="translate(0,0)"/>
<path d="" fill="#FEFFFF" transform="translate(0,0)"/>
<path d="" fill="#F5F4F7" transform="translate(0,0)"/>
<path d="" fill="#FDFFFF" transform="translate(0,0)"/>
<path d="" fill="#FFFDFF" transform="translate(0,0)"/>
<path d="" fill="#FDFEFD" transform="translate(0,0)"/>
<path d="" fill="#F7F8F9" transform="translate(0,0)"/>
<path d="" fill="#FDFDFE" transform="translate(0,0)"/>
<path d="" fill="#FDFFFF" transform="translate(0,0)"/>
<path d="" fill="#FDFCFD" transform="translate(0,0)"/>
<path d="" fill="#FAF7FA" transform="translate(0,0)"/>
<path d="" fill="#FEFEFC" transform="translate(0,0)"/>
<path d="" fill="#FEFEFE" transform="translate(0,0)"/>
<path d="" fill="#FFFDFE" transform="translate(0,0)"/>
<path d="" fill="#F8F7F7" transform="translate(0,0)"/>
<path d="" fill="#F9F8F9" transform="translate(0,0)"/>
<path d="" fill="#FDFBFF" transform="translate(0,0)"/>
<path d="" fill="#FFFFFD" transform="translate(0,0)"/>
<path d="" fill="#FFFFFE" transform="translate(0,0)"/>
<path d="" fill="#F8F8F9" transform="translate(0,0)"/>
<path d="" fill="#FEFEFF" transform="translate(0,0)"/>
<path d="" fill="#FEFFFD" transform="translate(0,0)"/>
<path d="" fill="#FCFDFF" transform="translate(0,0)"/>
<path d="" fill="#FCFEFF" transform="translate(0,0)"/>
<path d="" fill="#FCFEFE" transform="translate(0,0)"/>
<path d="" fill="#FDFEFE" transform="translate(0,0)"/>
<path d="" fill="#FEFEFD" transform="translate(0,0)"/>
<path d="" fill="#FDFBFE" transform="translate(0,0)"/>
<path d="" fill="#FAFCFB" transform="translate(0,0)"/>
<path d="" fill="#FFFBFC" transform="translate(0,0)"/>
<path d="" fill="#FDFBFD" transform="translate(0,0)"/>
<path d="" fill="#FAF9FC" transform="translate(0,0)"/>
<path d="" fill="#FEFFFE" transform="translate(0,0)"/>
<path d="" fill="#FBFDFF" transform="translate(0,0)"/>
<path d="" fill="#FFFEFF" transform="translate(0,0)"/>
<path d="" fill="#FAFAFB" transform="translate(0,0)"/>
<path d="" fill="#FEFFFC" transform="translate(0,0)"/>
<path d="" fill="#FBFCFE" transform="translate(0,0)"/>
<path d="" fill="#FFFFFE" transform="translate(0,0)"/>
<path d="" fill="#FCFBFC" transform="translate(0,0)"/>
<path d="" fill="#FDFDFD" transform="translate(0,0)"/>
<path d="" fill="#F9FCFD" transform="translate(0,0)"/>
<path d="" fill="#FBFCFD" transform="translate(0,0)"/>
<path d="" fill="#FBF8FB" transform="translate(0,0)"/>
<path d="" fill="#F9FBF8" transform="translate(0,0)"/>
<path d="" fill="#FAFBF9" transform="translate(0,0)"/>
<path d="" fill="#FAFAFB" transform="translate(0,0)"/>
<path d="" fill="#FDFEFE" transform="translate(0,0)"/>
<path d="" fill="#FDFDFF" transform="translate(0,0)"/>
<path d="" fill="#FDFCFF" transform="translate(0,0)"/>
<path d="" fill="#FCFDFE" transform="translate(0,0)"/>
<path d="" fill="#F8F8F9" transform="translate(0,0)"/>
<path d="" fill="#FFFCFD" transform="translate(0,0)"/>
<path d="" fill="#FEFBFC" transform="translate(0,0)"/>
<path d="" fill="#FEFEFF" transform="translate(0,0)"/>
<path d="" fill="#F7F8F9" transform="translate(0,0)"/>
<path d="" fill="#FDFEFE" transform="translate(0,0)"/>
<path d="" fill="#F7F8F7" transform="translate(0,0)"/>
<path d="" fill="#FFFEFF" transform="translate(0,0)"/>
<path d="" fill="#FCFEFD" transform="translate(0,0)"/>
<path d="" fill="#FDFCFD" transform="translate(0,0)"/>
<path d="" fill="#FFFFFD" transform="translate(0,0)"/>
<path d="" fill="#FEFEFF" transform="translate(0,0)"/>
<path d="" fill="#F8F9F7" transform="translate(0,0)"/>
<path d="" fill="#FEFDFE" transform="translate(0,0)"/>
<path d="" fill="#FEFFFF" transform="translate(0,0)"/>
<path d="" fill="#FEFFFF" transform="translate(0,0)"/>
<path d="" fill="#F3F7F6" transform="translate(0,0)"/>
<path d="" fill="#FEFEFF" transform="translate(0,0)"/>
<path d="" fill="#FDFEFC" transform="translate(0,0)"/>
<path d="" fill="#F5F7F7" transform="translate(0,0)"/>
<path d="" fill="#FEFBFD" transform="translate(0,0)"/>
<path d="" fill="#FEFDFF" transform="translate(0,0)"/>
<path d="" fill="#FDFFFF" transform="translate(0,0)"/>
<path d="" fill="#EEF0F0" transform="translate(0,0)"/>
<path d="" fill="#FDFFFF" transform="translate(0,0)"/>
<path d="" fill="#FEFEFF" transform="translate(0,0)"/>
<path d="" fill="#FDFCFE" transform="translate(0,0)"/>
<path d="" fill="#FCFFFD" transform="translate(0,0)"/>
<path d="" fill="#FCFBFF" transform="translate(0,0)"/>
<path d="" fill="#FFFEFE" transform="translate(0,0)"/>
<path d="" fill="#FDFDF9" transform="translate(0,0)"/>
<path d="" fill="#FFFEFE" transform="translate(0,0)"/>
<path d="" fill="#FBFCFB" transform="translate(0,0)"/>
<path d="" fill="#FEFEFF" transform="translate(0,0)"/>
<path d="" fill="#FCFBFE" transform="translate(0,0)"/>
<path d="" fill="#FFFBFE" transform="translate(0,0)"/>
<path d="" fill="#FFFFFF" transform="translate(0,0)"/>
<path d="" fill="#FFFFFE" transform="translate(0,0)"/>
<path d="" fill="#FFFEFE" transform="translate(0,0)"/>
<path d="" fill="#FCFEFC" transform="translate(0,0)"/>
<path d="" fill="#FCFEFF" transform="translate(0,0)"/>
<path d="" fill="#FDFFFF" transform="translate(0,0)"/>
<path d="" fill="#FEFEFE" transform="translate(0,0)"/>
<path d="" fill="#FEFDFD" transform="translate(0,0)"/>
<path d="" fill="#FDFDFD" transform="translate(0,0)"/>
<path d="" fill="#FEFEFD" transform="translate(0,0)"/>
<path d="" fill="#FEFEFF" transform="translate(0,0)"/>
<path d="" fill="#E3E3E4" transform="translate(0,0)"/>
<path d="" fill="#FFFEFE" transform="translate(0,0)"/>
<path d="" fill="#E2E4E2" transform="translate(0,0)"/>
<path d="" fill="#FEFFFB" transform="translate(0,0)"/>
<path d="" fill="#FDFDFF" transform="translate(0,0)"/>
<path d="" fill="#FFFEFF" transform="translate(0,0)"/>
<path d="" fill="#FEFFFF" transform="translate(0,0)"/>
<path d="" fill="#FFFFFD" transform="translate(0,0)"/>
<path d="" fill="#FFFFFF" transform="translate(0,0)"/>
<path d="" fill="#FDFEFD" transform="translate(0,0)"/>
<path d="" fill="#FDFFFD" transform="translate(0,0)"/>
<path d="" fill="#FEFFFF" transform="translate(0,0)"/>
<path d="" fill="#FDFDFD" transform="translate(0,0)"/>
<path d="" fill="#FDFEFE" transform="translate(0,0)"/>
<path d="" fill="#FEFEFD" transform="translate(0,0)"/>
<path d="" fill="#FCFEFD" transform="translate(0,0)"/>
<path d="" fill="#FFFFFD" transform="translate(0,0)"/>
<path d="" fill="#FDFFFE" transform="translate(0,0)"/>
<path d="" fill="#FFFFFF" transform="translate(0,0)"/>
<path d="" fill="#FEFFFE" transform="translate(0,0)"/>
<path d="" fill="#FDFEFD" transform="translate(0,0)"/>
<path d="" fill="#FFFFFF" transform="translate(0,0)"/>
<path d="" fill="#FFFEFD" transform="translate(0,0)"/>
<path d="" fill="#FFFFFF" transform="translate(0,0)"/>
<path d="" fill="#FEFDFD" transform="translate(0,0)"/>
<path d="" fill="#FBFBFC" transform="translate(0,0)"/>
<path d="" fill="#FFFFFF" transform="translate(0,0)"/>
<path d="" fill="#FCFFFE" transform="translate(0,0)"/>
<path d="" fill="#FDFEFD" transform="translate(0,0)"/>
<path d="" fill="#E7E9E9" transform="translate(0,0)"/>
<path d="" fill="#FAFDFE" transform="translate(0,0)"/>
<path d="" fill="#E7E7E8" transform="translate(0,0)"/>
<path d="" fill="#FCFCFD" transform="translate(0,0)"/>
<path d="" fill="#FEFEFD" transform="translate(0,0)"/>
<path d="" fill="#EEEEEF" transform="translate(0,0)"/>
<path d="" fill="#EDEEEF" transform="translate(0,0)"/>
<path d="" fill="#FCFCFA" transform="translate(0,0)"/>
<path d="" fill="#FAFBFC" transform="translate(0,0)"/>
<path d="" fill="#FCFCFE" transform="translate(0,0)"/>
<path d="" fill="#FCFCFB" transform="translate(0,0)"/>
<path d="" fill="#EDF1EF" transform="translate(0,0)"/>
<path d="" fill="#FDFBFC" transform="translate(0,0)"/>
<path d="" fill="#FFFFFE" transform="translate(0,0)"/>
<path d="" fill="#FEFEFF" transform="translate(0,0)"/>
<path d="" fill="#FDFCFC" transform="translate(0,0)"/>
<path d="" fill="#F3F4F3" transform="translate(0,0)"/>
<path d="" fill="#FAFBFE" transform="translate(0,0)"/>
<path d="" fill="#FDFFFD" transform="translate(0,0)"/>
<path d="" fill="#FEFCFF" transform="translate(0,0)"/>
<path d="" fill="#FEFCFD" transform="translate(0,0)"/>
<path d="" fill="#FFFDFF" transform="translate(0,0)"/>
<path d="" fill="#FDFEFD" transform="translate(0,0)"/>
<path d="" fill="#FFFFFF" transform="translate(0,0)"/>
<path d="" fill="#FCFDFF" transform="translate(0,0)"/>
<path d="" fill="#FDFCFC" transform="translate(0,0)"/>
<path d="" fill="#FDFFFF" transform="translate(0,0)"/>
<path d="" fill="#FDFEFD" transform="translate(0,0)"/>
<path d="" fill="#FAFEFD" transform="translate(0,0)"/>
<path d="" fill="#FCFEFF" transform="translate(0,0)"/>
<path d="" fill="#FDFBFD" transform="translate(0,0)"/>
<path d="" fill="#FDFCFD" transform="translate(0,0)"/>
<path d="" fill="#FDFFFE" transform="translate(0,0)"/>
<path d="" fill="#F6F6F6" transform="translate(0,0)"/>
<path d="" fill="#FCFBFB" transform="translate(0,0)"/>
<path d="" fill="#FEFDFD" transform="translate(0,0)"/>
<path d="" fill="#FFFFFF" transform="translate(0,0)"/>
<path d="" fill="#FFFFFE" transform="translate(0,0)"/>
<path d="" fill="#FFFFFE" transform="translate(0,0)"/>
<path d="" fill="#FFFFFF" transform="translate(0,0)"/>
<path d="" fill="#F6F7F6" transform="translate(0,0)"/>
<path d="" fill="#F9FDFD" transform="translate(0,0)"/>
<path d="" fill="#FCFCFB" transform="translate(0,0)"/>
<path d="" fill="#FDFFFE" transform="translate(0,0)"/>
<path d="" fill="#FEFEFE" transform="translate(0,0)"/>
<path d="" fill="#F7FAF9" transform="translate(0,0)"/>
<path d="" fill="#FDFDFD" transform="translate(0,0)"/>
<path d="" fill="#FAFAFB" transform="translate(0,0)"/>
<path d="" fill="#FCFCFD" transform="translate(0,0)"/>
<path d="" fill="#F8FAF9" transform="translate(0,0)"/>
<path d="" fill="#FBFCFD" transform="translate(0,0)"/>
<path d="" fill="#FBFDFB" transform="translate(0,0)"/>
<path d="" fill="#FAFAFB" transform="translate(0,0)"/>
<path d="" fill="#FCFBFB" transform="translate(0,0)"/>
<path d="" fill="#F9F9FB" transform="translate(0,0)"/>
<path d="" fill="#F9FCF9" transform="translate(0,0)"/>
<path d="" fill="#F7F8F7" transform="translate(0,0)"/>
<path d="" fill="#F8F8F9" transform="translate(0,0)"/>
<path d="" fill="#F9F9F7" transform="translate(0,0)"/>
<path d="" fill="#FDFCFF" transform="translate(0,0)"/>
<path d="" fill="#FAFAFC" transform="translate(0,0)"/>
<path d="" fill="#F8F9F8" transform="translate(0,0)"/>
<path d="" fill="#F7F7F7" transform="translate(0,0)"/>
<path d="" fill="#F7F8F8" transform="translate(0,0)"/>
<path d="" fill="#F7F7F7" transform="translate(0,0)"/>
<path d="" fill="#F6F4F5" transform="translate(0,0)"/>
<path d="" fill="#F2F3F7" transform="translate(0,0)"/>
<path d="" fill="#F8F8F8" transform="translate(0,0)"/>
<path d="" fill="#F4F4F5" transform="translate(0,0)"/>
<path d="" fill="#F5F8F8" transform="translate(0,0)"/>
<path d="" fill="#F7F9F7" transform="translate(0,0)"/>
<path d="" fill="#FBFBFD" transform="translate(0,0)"/>
<path d="" fill="#F7F7F6" transform="translate(0,0)"/>
<path d="" fill="#F7F8F9" transform="translate(0,0)"/>
<path d="" fill="#F5F4F4" transform="translate(0,0)"/>
<path d="" fill="#F8FAFB" transform="translate(0,0)"/>
<path d="" fill="#FBFDFC" transform="translate(0,0)"/>
<path d="" fill="#FBFAFC" transform="translate(0,0)"/>
<path d="" fill="#F4F4F5" transform="translate(0,0)"/>
<path d="" fill="#F4F5F4" transform="translate(0,0)"/>
<path d="" fill="#FCFBFC" transform="translate(0,0)"/>
<path d="" fill="#FBFBFB" transform="translate(0,0)"/>
<path d="" fill="#F3F7F3" transform="translate(0,0)"/>
<path d="" fill="#F5F6F4" transform="translate(0,0)"/>
<path d="" fill="#FBFCFA" transform="translate(0,0)"/>
<path d="" fill="#F4F6F5" transform="translate(0,0)"/>
<path d="" fill="#F4F6F4" transform="translate(0,0)"/>
<path d="" fill="#F3F5F6" transform="translate(0,0)"/>
<path d="" fill="#F1F2F2" transform="translate(0,0)"/>
<path d="" fill="#F1F6F4" transform="translate(0,0)"/>
<path d="" fill="#F5F5F7" transform="translate(0,0)"/>
<path d="" fill="#F3F5F4" transform="translate(0,0)"/>
<path d="" fill="#F2F6F5" transform="translate(0,0)"/>
<path d="" fill="#F4F2F5" transform="translate(0,0)"/>
<path d="" fill="#F0F3F3" transform="translate(0,0)"/>
<path d="" fill="#F4F4F4" transform="translate(0,0)"/>
<path d="" fill="#F6F5F8" transform="translate(0,0)"/>
<path d="" fill="#F9FBF9" transform="translate(0,0)"/>
<path d="" fill="#F5F5F4" transform="translate(0,0)"/>
<path d="" fill="#FCFBFD" transform="translate(0,0)"/>
<path d="" fill="#F6F7F8" transform="translate(0,0)"/>
<path d="" fill="#FDFDFF" transform="translate(0,0)"/>
<path d="" fill="#FDFCFB" transform="translate(0,0)"/>
<path d="" fill="#F7F8FA" transform="translate(0,0)"/>
<path d="" fill="#FEFDFE" transform="translate(0,0)"/>
<path d="" fill="#F9F9FA" transform="translate(0,0)"/>
<path d="" fill="#F9F8F9" transform="translate(0,0)"/>
<path d="" fill="#FDFDFD" transform="translate(0,0)"/>
<path d="" fill="#FEFEFF" transform="translate(0,0)"/>
<path d="" fill="#F6F7F8" transform="translate(0,0)"/>
<path d="" fill="#FCFDFF" transform="translate(0,0)"/>
<path d="" fill="#FCFDFE" transform="translate(0,0)"/>
<path d="" fill="#FDFDFD" transform="translate(0,0)"/>
<path d="" fill="#F4F3F3" transform="translate(0,0)"/>
<path d="" fill="#F2F3F1" transform="translate(0,0)"/>
<path d="" fill="#FFFFFF" transform="translate(0,0)"/>
<path d="" fill="#FCFDFD" transform="translate(0,0)"/>
<path d="" fill="#FFFFFF" transform="translate(0,0)"/>
<path d="" fill="#FCFFFE" transform="translate(0,0)"/>
<path d="" fill="#E7EAEB" transform="translate(0,0)"/>
<path d="" fill="#FCFBFC" transform="translate(0,0)"/>
<path d="" fill="#FBFFFE" transform="translate(0,0)"/>
<path d="" fill="#FDFDFE" transform="translate(0,0)"/>
<path d="" fill="#FEFFFE" transform="translate(0,0)"/>
<path d="" fill="#ECEFEE" transform="translate(0,0)"/>
<path d="" fill="#FAFDFC" transform="translate(0,0)"/>
<path d="" fill="#FBFDFF" transform="translate(0,0)"/>
<path d="" fill="#E5E7E6" transform="translate(0,0)"/>
<path d="" fill="#FDFCFB" transform="translate(0,0)"/>
<path d="" fill="#E1E5E4" transform="translate(0,0)"/>
<path d="" fill="#FBFDFE" transform="translate(0,0)"/>
<path d="" fill="#D5D7D6" transform="translate(0,0)"/>
<path d="" fill="#FBF9FC" transform="translate(0,0)"/>
<path d="" fill="#F9FBFC" transform="translate(0,0)"/>
<path d="" fill="#FBFEFC" transform="translate(0,0)"/>
<path d="" fill="#F7F7F8" transform="translate(0,0)"/>
<path d="" fill="#FBFAFE" transform="translate(0,0)"/>
<path d="" fill="#F7F9F7" transform="translate(0,0)"/>
<path d="" fill="#FBFAFD" transform="translate(0,0)"/>
<path d="" fill="#DFDFE3" transform="translate(0,0)"/>
<path d="" fill="#F8FBFB" transform="translate(0,0)"/>
<path d="" fill="#BABBBB" transform="translate(0,0)"/>
<path d="" fill="#E2E5E7" transform="translate(0,0)"/>
<path d="" fill="#F1F5F4" transform="translate(0,0)"/>
<path d="" fill="#EDEEF0" transform="translate(0,0)"/>
<path d="" fill="#EDEBEC" transform="translate(0,0)"/>
<path d="" fill="#F0F1F0" transform="translate(0,0)"/>
<path d="" fill="#EFF0F2" transform="translate(0,0)"/>
<path d="" fill="#EAE9EA" transform="translate(0,0)"/>
<path d="" fill="#F5F7F7" transform="translate(0,0)"/>
<path d="" fill="#F5F5F5" transform="translate(0,0)"/>
<path d="" fill="#F5F6F4" transform="translate(0,0)"/>
<path d="" fill="#F4F6F6" transform="translate(0,0)"/>
<path d="" fill="#F6F9F8" transform="translate(0,0)"/>
<path d="" fill="#F4F7F4" transform="translate(0,0)"/>
<path d="" fill="#F4F9F5" transform="translate(0,0)"/>
<path d="" fill="#F8F7F8" transform="translate(0,0)"/>
<path d="" fill="#F2F5F6" transform="translate(0,0)"/>
<path d="" fill="#F6F8F8" transform="translate(0,0)"/>
<path d="" fill="#F7F9F9" transform="translate(0,0)"/>
<path d="" fill="#FAFAFB" transform="translate(0,0)"/>
<path d="" fill="#FAFBFA" transform="translate(0,0)"/>
<path d="" fill="#FEFEFD" transform="translate(0,0)"/>
<path d="" fill="#FCFEFB" transform="translate(0,0)"/>
<path d="" fill="#ECECED" transform="translate(0,0)"/>
<path d="" fill="#FBFAFB" transform="translate(0,0)"/>
<path d="" fill="#FDFFFB" transform="translate(0,0)"/>
<path d="" fill="#F8F9FA" transform="translate(0,0)"/>
<path d="" fill="#FCFCFD" transform="translate(0,0)"/>
<path d="" fill="#FCFDFD" transform="translate(0,0)"/>
<path d="" fill="#FEFBFE" transform="translate(0,0)"/>
<path d="" fill="#FCFBFB" transform="translate(0,0)"/>
<path d="" fill="#FBFAF9" transform="translate(0,0)"/>
<path d="" fill="#F9F9F9" transform="translate(0,0)"/>
<path d="" fill="#FAF9FA" transform="translate(0,0)"/>
<path d="" fill="#FDFDFD" transform="translate(0,0)"/>
<path d="" fill="#FDFCFD" transform="translate(0,0)"/>
<path d="" fill="#FAF8F9" transform="translate(0,0)"/>
<path d="" fill="#F8F7F9" transform="translate(0,0)"/>
<path d="" fill="#8E8F8F" transform="translate(0,0)"/>
<path d="" fill="#FBFAFC" transform="translate(0,0)"/>
<path d="" fill="#F6FAFA" transform="translate(0,0)"/>
<path d="" fill="#F5F8F7" transform="translate(0,0)"/>
<path d="" fill="#F4F6F6" transform="translate(0,0)"/>
<path d="" fill="#FBFDFE" transform="translate(0,0)"/>
<path d="" fill="#EFF1F2" transform="translate(0,0)"/>
<path d="" fill="#F2F5F6" transform="translate(0,0)"/>
<path d="" fill="#F0F2F3" transform="translate(0,0)"/>
<path d="" fill="#EFF0F0" transform="translate(0,0)"/>
<path d="" fill="#FBFAF9" transform="translate(0,0)"/>
<path d="" fill="#FCFEFC" transform="translate(0,0)"/>
<path d="" fill="#F4F3F3" transform="translate(0,0)"/>
<path d="" fill="#FBFDFD" transform="translate(0,0)"/>
<path d="" fill="#FBFEFB" transform="translate(0,0)"/>
<path d="" fill="#FAFCFD" transform="translate(0,0)"/>
<path d="" fill="#FCFCFC" transform="translate(0,0)"/>
<path d="" fill="#E4E4E5" transform="translate(0,0)"/>
<path d="" fill="#F4F5F4" transform="translate(0,0)"/>
<path d="" fill="#F2F1F6" transform="translate(0,0)"/>
<path d="" fill="#EFF1F3" transform="translate(0,0)"/>
<path d="" fill="#F3F5F5" transform="translate(0,0)"/>
<path d="" fill="#F6F5F5" transform="translate(0,0)"/>
<path d="" fill="#F4F7F7" transform="translate(0,0)"/>
<path d="" fill="#EBECE9" transform="translate(0,0)"/>
<path d="" fill="#F6F5F7" transform="translate(0,0)"/>
<path d="" fill="#F3F5F5" transform="translate(0,0)"/>
<path d="" fill="#F5F6F7" transform="translate(0,0)"/>
<path d="" fill="#F8F9FB" transform="translate(0,0)"/>
<path d="" fill="#F9FBFB" transform="translate(0,0)"/>
<path d="" fill="#F9FAF9" transform="translate(0,0)"/>
<path d="" fill="#EBEDEE" transform="translate(0,0)"/>
<path d="" fill="#FBFEFC" transform="translate(0,0)"/>
<path d="" fill="#FCFDFB" transform="translate(0,0)"/>
<path d="" fill="#FCFEFC" transform="translate(0,0)"/>
<path d="" fill="#EDEFF0" transform="translate(0,0)"/>
<path d="" fill="#F0EFEF" transform="translate(0,0)"/>
<path d="" fill="#FDFCFC" transform="translate(0,0)"/>
<path d="" fill="#FCFDFD" transform="translate(0,0)"/>
<path d="" fill="#FAFCFD" transform="translate(0,0)"/>
<path d="" fill="#FCFCFD" transform="translate(0,0)"/>
<path d="" fill="#F9F9FB" transform="translate(0,0)"/>
<path d="" fill="#F9FAFB" transform="translate(0,0)"/>
<path d="" fill="#F9FBFA" transform="translate(0,0)"/>
<path d="" fill="#FCFDFD" transform="translate(0,0)"/>
<path d="" fill="#F8FAF9" transform="translate(0,0)"/>
<path d="" fill="#F7F9F7" transform="translate(0,0)"/>
<path d="" fill="#F9FAFA" transform="translate(0,0)"/>
<path d="" fill="#F9FBF8" transform="translate(0,0)"/>
<path d="" fill="#FBFDFB" transform="translate(0,0)"/>
<path d="" fill="#FAFCFE" transform="translate(0,0)"/>
<path d="" fill="#F9FAF8" transform="translate(0,0)"/>
<path d="" fill="#F8F8F8" transform="translate(0,0)"/>
<path d="" fill="#F3F4F4" transform="translate(0,0)"/>
<path d="" fill="#E5E7EA" transform="translate(0,0)"/>
<path d="" fill="#DFE0DE" transform="translate(0,0)"/>
<path d="" fill="#F8FAFA" transform="translate(0,0)"/>
<path d="" fill="#FFFBFD" transform="translate(0,0)"/>
<path d="" fill="#F6F9F9" transform="translate(0,0)"/>
<path d="" fill="#FEFCFC" transform="translate(0,0)"/>
<path d="" fill="#FDFBFC" transform="translate(0,0)"/>
<path d="" fill="#F5F9F8" transform="translate(0,0)"/>
<path d="" fill="#FAFBFB" transform="translate(0,0)"/>
<path d="" fill="#FBFCFB" transform="translate(0,0)"/>
<path d="" fill="#FBFCFB" transform="translate(0,0)"/>
<path d="" fill="#FCFCFC" transform="translate(0,0)"/>
<path d="" fill="#F8F9FB" transform="translate(0,0)"/>
<path d="" fill="#FCFAFB" transform="translate(0,0)"/>
<path d="" fill="#FBFBFB" transform="translate(0,0)"/>
<path d="" fill="#FCFBFB" transform="translate(0,0)"/>
<path d="" fill="#FBFBFA" transform="translate(0,0)"/>
<path d="" fill="#FAFCFC" transform="translate(0,0)"/>
<path d="" fill="#FCFCFC" transform="translate(0,0)"/>
<path d="" fill="#FCFBFB" transform="translate(0,0)"/>
<path d="" fill="#FCFFFC" transform="translate(0,0)"/>
<path d="" fill="#FCFDFC" transform="translate(0,0)"/>
<path d="" fill="#FDFEFE" transform="translate(0,0)"/>
<path d="" fill="#FBFCFE" transform="translate(0,0)"/>
<path d="" fill="#FFFDFF" transform="translate(0,0)"/>
<path d="" fill="#FDFBFE" transform="translate(0,0)"/>
<path d="" fill="#FCFDFB" transform="translate(0,0)"/>
<path d="" fill="#FBFCFC" transform="translate(0,0)"/>
<path d="" fill="#FCFCFB" transform="translate(0,0)"/>
<path d="" fill="#F4F5F6" transform="translate(0,0)"/>
<path d="" fill="#FAFBFC" transform="translate(0,0)"/>
<path d="" fill="#F6F7F6" transform="translate(0,0)"/>
<path d="" fill="#FBFCFC" transform="translate(0,0)"/>
<path d="" fill="#FCFDFB" transform="translate(0,0)"/>
<path d="" fill="#FDFCFB" transform="translate(0,0)"/>
<path d="" fill="#FDFFFD" transform="translate(0,0)"/>
<path d="" fill="#FBFEFE" transform="translate(0,0)"/>
<path d="" fill="#FAFCFA" transform="translate(0,0)"/>
<path d="" fill="#FCFAFC" transform="translate(0,0)"/>
<path d="" fill="#F9FAF8" transform="translate(0,0)"/>
<path d="" fill="#F8FAFB" transform="translate(0,0)"/>
<path d="" fill="#FAF9FB" transform="translate(0,0)"/>
<path d="" fill="#FBFCFA" transform="translate(0,0)"/>
<path d="" fill="#FCFEFD" transform="translate(0,0)"/>
<path d="" fill="#FBF9FB" transform="translate(0,0)"/>
<path d="" fill="#FBFCFA" transform="translate(0,0)"/>
<path d="" fill="#F8F8FA" transform="translate(0,0)"/>
<path d="" fill="#F4F2F4" transform="translate(0,0)"/>
<path d="" fill="#FAF8FA" transform="translate(0,0)"/>
<path d="" fill="#F8F9F7" transform="translate(0,0)"/>
<path d="" fill="#EDF0F1" transform="translate(0,0)"/>
<path d="" fill="#F7F9F8" transform="translate(0,0)"/>
<path d="" fill="#F7FAF8" transform="translate(0,0)"/>
<path d="" fill="#F9FBF8" transform="translate(0,0)"/>
<path d="" fill="#F5F8F8" transform="translate(0,0)"/>
<path d="" fill="#F4F6F7" transform="translate(0,0)"/>
<path d="" fill="#F0F3F2" transform="translate(0,0)"/>
<path d="" fill="#EDF0F1" transform="translate(0,0)"/>
<path d="" fill="#F5F5F9" transform="translate(0,0)"/>
<path d="" fill="#F6F6F7" transform="translate(0,0)"/>
<path d="" fill="#F9F8F8" transform="translate(0,0)"/>
<path d="" fill="#F8F8F9" transform="translate(0,0)"/>
<path d="" fill="#F6F6FA" transform="translate(0,0)"/>
<path d="" fill="#F6F7F8" transform="translate(0,0)"/>
<path d="" fill="#F3F5F8" transform="translate(0,0)"/>
<path d="" fill="#F9F8FB" transform="translate(0,0)"/>
<path d="" fill="#EEF0F1" transform="translate(0,0)"/>
<path d="" fill="#F6F4F5" transform="translate(0,0)"/>
<path d="" fill="#EFEEEE" transform="translate(0,0)"/>
<path d="" fill="#F7F8F5" transform="translate(0,0)"/>
<path d="" fill="#F7F7F8" transform="translate(0,0)"/>
<path d="" fill="#F2F2F1" transform="translate(0,0)"/>
<path d="" fill="#EDEEEC" transform="translate(0,0)"/>
<path d="" fill="#E7E9E8" transform="translate(0,0)"/>
<path d="" fill="#EDEFED" transform="translate(0,0)"/>
<path d="" fill="#ECEFED" transform="translate(0,0)"/>
<path d="" fill="#E7E9E8" transform="translate(0,0)"/>
<path d="" fill="#F0EFF2" transform="translate(0,0)"/>
<path d="" fill="#ECEFEC" transform="translate(0,0)"/>
<path d="" fill="#D9DCDC" transform="translate(0,0)"/>
<path d="" fill="#E5E6E6" transform="translate(0,0)"/>
<path d="" fill="#EEEFF1" transform="translate(0,0)"/>
<path d="" fill="#D6D6DA" transform="translate(0,0)"/>
<path d="" fill="#E3E4E6" transform="translate(0,0)"/>
<path d="" fill="#E8E9EB" transform="translate(0,0)"/>
<path d="" fill="#DCDFE0" transform="translate(0,0)"/>
<path d="" fill="#DEDEDE" transform="translate(0,0)"/>
<path d="" fill="#ECEFEF" transform="translate(0,0)"/>
<path d="" fill="#D1D2D3" transform="translate(0,0)"/>
<path d="" fill="#DAD9DA" transform="translate(0,0)"/>
<path d="" fill="#CFD2D2" transform="translate(0,0)"/>
<path d="" fill="#D6D7D8" transform="translate(0,0)"/>
<path d="" fill="#EBEBEC" transform="translate(0,0)"/>
<path d="" fill="#CFD1D1" transform="translate(0,0)"/>
<path d="" fill="#EDEDED" transform="translate(0,0)"/>
<path d="" fill="#CACCD0" transform="translate(0,0)"/>
<path d="" fill="#E3E4E2" transform="translate(0,0)"/>
<path d="" fill="#030304" transform="translate(0,0)"/>
<path d="" fill="#E0E1E3" transform="translate(0,0)"/>
<path d="" fill="#E4E5E2" transform="translate(0,0)"/>
<path d="" fill="#DEDFDD" transform="translate(0,0)"/>
<path d="" fill="#DDDFDE" transform="translate(0,0)"/>
<path d="" fill="#898988" transform="translate(0,0)"/>
<path d="" fill="#D4D2D0" transform="translate(0,0)"/>
<path d="" fill="#0D0D0C" transform="translate(0,0)"/>
<path d="" fill="#000000" transform="translate(0,0)"/>
<path d="" fill="#000000" transform="translate(0,0)"/>
<path d="" fill="#000000" transform="translate(0,0)"/>
<path d="" fill="#000100" transform="translate(0,0)"/>
<path d="" fill="#000200" transform="translate(0,0)"/>
<path d="" fill="#000000" transform="translate(0,0)"/>
<path d="" fill="#282A2A" transform="translate(0,0)"/>
<path d="" fill="#000000" transform="translate(0,0)"/>
<path d="" fill="#000000" transform="translate(0,0)"/>
<path d="" fill="#000000" transform="translate(0,0)"/>
<path d="" fill="#040102" transform="translate(0,0)"/>
<path d="" fill="#000000" transform="translate(0,0)"/>
<path d="" fill="#000000" transform="translate(0,0)"/>
<path d="" fill="#0A0C0B" transform="translate(0,0)"/>
<path d="" fill="#000000" transform="translate(0,0)"/>
<path d="" fill="#000000" transform="translate(0,0)"/>
<path d="" fill="#000000" transform="translate(0,0)"/>
<path d="" fill="#050504" transform="translate(0,0)"/>
<path d="" fill="#000000" transform="translate(0,0)"/>
<path d="" fill="#000000" transform="translate(0,0)"/>
<path d="" fill="#030504" transform="translate(0,0)"/>
<path d="" fill="#000202" transform="translate(0,0)"/>
<path d="" fill="#010202" transform="translate(0,0)"/>
<path d="" fill="#000000" transform="translate(0,0)"/>
<path d="" fill="#000000" transform="translate(0,0)"/>
<path d="" fill="#000000" transform="translate(0,0)"/>
<path d="" fill="#000000" transform="translate(0,0)"/>
<path d="" fill="#000000" transform="translate(0,0)"/>
<path d="" fill="#000000" transform="translate(0,0)"/>
<path d="" fill="#000000" transform="translate(0,0)"/>
<path d="" fill="#000000" transform="translate(0,0)"/>
<path d="" fill="#000000" transform="translate(0,0)"/>
<path d="" fill="#000000" transform="translate(0,0)"/>
<path d="" fill="#000000" transform="translate(0,0)"/>
<path d="" fill="#000000" transform="translate(0,0)"/>
<path d="" fill="#000000" transform="translate(0,0)"/>
<path d="" fill="#000000" transform="translate(0,0)"/>
<path d="" fill="#000000" transform="translate(0,0)"/>
<path d="" fill="#000000" transform="translate(0,0)"/>
<path d="" fill="#000000" transform="translate(0,0)"/>
<path d="" fill="#000000" transform="translate(0,0)"/>
</svg>
